<?xml version="1.0" encoding="utf-8"?>
<!-- Generator: Adobe Illustrator 16.2.1, SVG Export Plug-In . SVG Version: 6.00 Build 0)  -->
<!DOCTYPE svg PUBLIC "-//W3C//DTD SVG 1.1//EN" "http://www.w3.org/Graphics/SVG/1.1/DTD/svg11.dtd">
<svg version="1.1" id="Layer_1" xmlns="http://www.w3.org/2000/svg" xmlns:xlink="http://www.w3.org/1999/xlink" x="0px" y="0px"
	 width="100px" height="17px" viewBox="0 0 100 17" enable-background="new 0 0 100 17" xml:space="preserve">
<g>
	<polygon fill="#FFFFFF" points="17,12 9.573,2 0,2 0,17 6,17 6,7 14,17 20.5,17 28,7 28,17 34.5,17 34.5,2 24.913,2 	"/>
	<polygon fill-rule="evenodd" clip-rule="evenodd" fill="#FFFFFF" points="52,9 62,17 67,17 67,13 52,0.5 37,13 37,17 42,17 	"/>
	<polygon fill-rule="evenodd" clip-rule="evenodd" fill="#FFFFFF" points="100,2 96,2 85,7 74,2 70,2 70,6.451 77.89,9.75 70,13 
		70,17 74,17 85,12 96,17 100,17 100,13 92.11,9.75 100,6.451 	"/>
</g>
</svg>
