<?xml version="1.0" encoding="utf-8"?>
<!-- Generator: Adobe Illustrator 16.1.0, SVG Export Plug-In . SVG Version: 6.00 Build 0)  -->
<!DOCTYPE svg PUBLIC "-//W3C//DTD SVG 1.1//EN" "http://www.w3.org/Graphics/SVG/1.1/DTD/svg11.dtd">
<svg version="1.1" id="Layer_1" xmlns="http://www.w3.org/2000/svg" xmlns:xlink="http://www.w3.org/1999/xlink" x="0px" y="0px"
	 width="150px" height="150px" viewBox="0 0 150 150" enable-background="new 0 0 150 150" xml:space="preserve">
<g>
	<g>
		<circle fill-rule="evenodd" clip-rule="evenodd" fill="#FFFFFF" cx="75" cy="75" r="75"/>
	</g>
	<path fill-rule="evenodd" clip-rule="evenodd" fill="#333333" d="M75,144c-29.414,0-54.771-18.742-64.615-44.91
		c17.327,17.02,40.894,26.972,65.729,26.972c23.288,0,45.246-8.532,62.165-23.573C127.6,126.984,103.113,144,75,144z"/>
	<path fill="#333333" d="M36.293,118.91c-1.852,3.078-7.556,3.041-12.738-0.073c-5.186-3.123-7.887-8.147-6.041-11.222
		c1.852-3.076,7.559-3.041,12.747,0.077C35.44,110.811,38.145,115.834,36.293,118.91z"/>
	
		<ellipse transform="matrix(0.9796 0.2008 -0.2008 0.9796 25.1368 -9.2426)" fill-rule="evenodd" clip-rule="evenodd" fill="#333333" stroke="#FFFFFF" stroke-width="3" stroke-miterlimit="10" cx="58.119" cy="119.262" rx="8.344" ry="5.391"/>
	<path fill="#333333" d="M53.771,31.344c8.73-3.607,14.262-10.29,12.535-15.059c-0.899,4.234-5.795,9.012-12.701,11.865
		c-8.859,3.658-17.639,2.751-19.611-2.028c-0.03-0.07-0.041-0.144-0.068-0.214c-0.252,1.197-0.203,2.354,0.23,3.406
		C36.132,34.094,44.91,35.001,53.771,31.344z"/>
	<path fill-rule="evenodd" clip-rule="evenodd" fill="#333333" stroke="#FFFFFF" stroke-width="3" stroke-miterlimit="10" d="
		M105.507,119.285c1.758,5.113-4.608,11.934-14.209,15.236c-9.604,3.299-18.817,1.828-20.572-3.286
		c-1.758-5.11,4.605-11.931,14.208-15.229C94.541,112.703,103.746,114.172,105.507,119.285z"/>
</g>
</svg>
