<?xml version="1.0" encoding="utf-8"?>
<!-- Generator: Adobe Illustrator 16.1.0, SVG Export Plug-In . SVG Version: 6.00 Build 0)  -->
<!DOCTYPE svg PUBLIC "-//W3C//DTD SVG 1.1//EN" "http://www.w3.org/Graphics/SVG/1.1/DTD/svg11.dtd">
<svg version="1.1" id="Layer_1" xmlns="http://www.w3.org/2000/svg" xmlns:xlink="http://www.w3.org/1999/xlink" x="0px" y="0px"
	 width="20px" height="20px" viewBox="0 0 20 20" enable-background="new 0 0 20 20" xml:space="preserve">
<path opacity="0.7" fill="#231F20" d="M17.953,5.923c0.008,0.175,0.012,0.351,0.012,0.529c0,5.424-4.127,11.676-11.675,11.676
	c-2.316,0-4.475-0.68-6.29-1.844c0.321,0.036,0.647,0.057,0.979,0.057c1.922,0,3.691-0.653,5.096-1.756
	c-1.795-0.034-3.311-1.219-3.832-2.851c0.25,0.05,0.507,0.074,0.771,0.074c0.375,0,0.735-0.051,1.08-0.145
	c-1.877-0.377-3.292-2.035-3.292-4.023c0-0.018,0-0.035,0.001-0.051C1.356,7.897,1.99,8.082,2.662,8.102
	c-1.101-0.734-1.825-1.99-1.825-3.414c0-0.751,0.202-1.457,0.557-2.062C3.416,5.108,6.44,6.741,9.85,6.913
	C9.78,6.612,9.745,6.299,9.745,5.977c0-2.266,1.836-4.104,4.103-4.104c1.182,0,2.247,0.498,2.995,1.295
	c0.935-0.183,1.812-0.525,2.604-0.994c-0.305,0.957-0.956,1.762-1.803,2.269c0.83-0.099,1.621-0.32,2.356-0.646
	C19.45,4.619,18.755,5.342,17.953,5.923z"/>
</svg>
