<?xml version="1.0" encoding="utf-8"?>
<!-- Generator: Adobe Illustrator 16.2.1, SVG Export Plug-In . SVG Version: 6.00 Build 0)  -->
<!DOCTYPE svg PUBLIC "-//W3C//DTD SVG 1.1//EN" "http://www.w3.org/Graphics/SVG/1.1/DTD/svg11.dtd">
<svg version="1.1" id="Layer_1" xmlns="http://www.w3.org/2000/svg" xmlns:xlink="http://www.w3.org/1999/xlink" x="0px" y="0px"
	 width="204px" height="146px" viewBox="0 0 204 146" enable-background="new 0 0 204 146" xml:space="preserve">
<rect fill="#E6E6E6" width="204" height="146"/>
<g>
	<path fill="#333333" d="M23.769,24.696h-4.871L16.693,29h-1.806l7.475-13.773h1.89L25.847,29h-1.701L23.769,24.696z M23.643,23.436
		l-0.21-2.352c-0.126-1.449-0.273-2.918-0.378-4.493h-0.084c-0.735,1.596-1.428,2.981-2.205,4.493l-1.218,2.352H23.643z"/>
	<path fill="#333333" d="M35.864,18.04l0.798-3.989h1.617L35.255,29h-1.323l0.168-1.512h-0.084c-0.987,1.05-2.268,1.764-3.548,1.764
		c-1.785,0-2.939-1.302-2.939-3.695c0-3.926,2.688-7.013,5.522-7.013c1.092,0,1.911,0.588,2.415,1.491h0.063L35.864,18.04z
		 M34.269,25.956l0.924-4.556c-0.588-1.071-1.302-1.512-2.079-1.512c-2.037,0-3.926,2.604-3.926,5.417
		c0,1.764,0.735,2.604,1.869,2.604C32.127,27.908,33.24,27.278,34.269,25.956z"/>
	<path fill="#333333" d="M38.764,25.158c0-3.863,2.708-6.614,5.501-6.614c2.205,0,3.653,1.554,3.653,4.094
		c0,3.863-2.729,6.614-5.522,6.614C40.191,29.252,38.764,27.698,38.764,25.158z M40.38,25.053c0,1.848,0.777,2.855,2.184,2.855
		c1.89,0,3.716-2.31,3.716-5.165c0-1.848-0.777-2.876-2.184-2.876C42.228,19.867,40.38,22.197,40.38,25.053z"/>
	<path fill="#333333" d="M49.411,29l2.981-14.949h1.617L53.19,18.04l-0.462,2.016h0.042c1.008-0.819,2.205-1.512,3.464-1.512
		c1.785,0,2.939,1.302,2.939,3.695c0,3.926-2.688,7.013-5.501,7.013c-1.092,0-1.974-0.609-2.457-1.533h-0.063L50.733,29H49.411z
		 M52.497,21.546l-0.966,4.85c0.567,1.071,1.281,1.512,2.079,1.512c2.037,0,3.905-2.604,3.905-5.438
		c0-1.722-0.714-2.583-1.869-2.583C54.702,19.888,53.463,20.518,52.497,21.546z"/>
	<path fill="#333333" d="M66.251,18.544c2.289,0,3.149,1.596,3.149,3.695c0,0.819-0.231,1.617-0.357,1.995h-6.635
		c-0.378,2.625,0.987,3.737,2.771,3.737c0.798,0,1.638-0.399,2.289-0.882l0.63,1.071c-0.819,0.588-1.974,1.092-3.296,1.092
		c-2.415,0-4.01-1.533-4.01-4.262C60.792,21.147,63.585,18.544,66.251,18.544z M67.931,23.142c0.063-0.336,0.105-0.651,0.105-1.05
		c0-1.155-0.504-2.268-1.974-2.268c-1.491,0-2.96,1.302-3.485,3.317H67.931z"/>
	<path fill="#333333" d="M72.09,28.202c0-0.714,0.609-1.47,1.407-1.47c0.609,0,0.966,0.462,0.966,1.071
		c0,0.714-0.567,1.449-1.386,1.449C72.468,29.252,72.09,28.811,72.09,28.202z M77.318,17.851c0-1.155-0.693-1.827-1.806-1.827
		c-0.798,0-1.596,0.42-2.205,1.071l-0.861-0.966c0.819-0.84,1.995-1.449,3.254-1.449c1.953,0,3.191,1.092,3.191,2.897
		c0,3.401-4.073,4.136-4.346,7.328l-1.386-0.126C73.371,21.231,77.318,20.434,77.318,17.851z"/>
	<path fill="#333333" d="M17.26,42.478c0-4.199,2.75-8.503,6.698-8.503c3.086,0,4.766,2.289,4.766,5.753
		c0,4.22-2.75,8.524-6.698,8.524C18.939,48.252,17.26,45.963,17.26,42.478z M18.918,42.352c0,2.688,0.987,4.493,3.191,4.493
		c2.96,0,4.955-3.758,4.955-6.971c0-2.708-1.008-4.493-3.191-4.493C20.913,35.381,18.918,39.119,18.918,42.352z"/>
	<path fill="#333333" d="M31.33,48.966l-0.651,3.338h-1.596l2.897-14.508h1.323l-0.126,1.344h0.063
		c1.029-0.861,2.247-1.596,3.527-1.596c1.785,0,2.939,1.323,2.939,3.695c0,3.926-2.688,7.013-5.501,7.013
		c-1.071,0-1.932-0.609-2.457-1.47h-0.042L31.33,48.966z M33.03,40.567l-0.966,4.871c0.567,1.05,1.281,1.47,2.079,1.47
		c2.037,0,3.905-2.604,3.905-5.438c0-1.722-0.714-2.583-1.869-2.583C35.235,38.888,33.996,39.518,33.03,40.567z"/>
	<path fill="#333333" d="M46.764,37.544c2.289,0,3.149,1.596,3.149,3.695c0,0.819-0.231,1.617-0.357,1.995h-6.635
		c-0.378,2.625,0.987,3.737,2.771,3.737c0.798,0,1.638-0.399,2.289-0.882l0.63,1.071c-0.819,0.588-1.974,1.092-3.296,1.092
		c-2.415,0-4.01-1.533-4.01-4.262C41.305,40.147,44.097,37.544,46.764,37.544z M48.443,42.142c0.063-0.336,0.105-0.651,0.105-1.05
		c0-1.155-0.504-2.268-1.974-2.268c-1.491,0-2.96,1.302-3.485,3.317H48.443z"/>
	<path fill="#333333" d="M53.295,37.796h1.323l-0.147,1.533h0.084c1.155-1.008,2.289-1.785,3.569-1.785
		c1.722,0,2.415,0.966,2.415,2.541c0,0.483-0.042,0.84-0.168,1.407L59.069,48h-1.596l1.26-6.299c0.105-0.546,0.168-0.84,0.168-1.197
		c0-1.029-0.462-1.575-1.512-1.575c-0.798,0-1.785,0.567-3.065,1.848L52.875,48h-1.596L53.295,37.796z"/>
	<path fill="#333333" d="M67.134,44.914c0.819,1.218,2.016,1.953,3.548,1.953c1.68,0,2.96-1.029,2.96-2.604
		c0-1.008-0.693-1.638-1.722-2.268l-1.596-0.966c-1.176-0.714-2.121-1.68-2.121-3.233c0-2.079,1.806-3.821,4.283-3.821
		c1.638,0,3.044,0.819,3.905,1.932l-1.071,0.966c-0.714-0.84-1.68-1.491-2.96-1.491c-1.554,0-2.499,1.113-2.499,2.226
		c0,1.071,0.777,1.638,1.785,2.247l1.596,0.945c1.323,0.777,2.079,1.701,2.079,3.233c0,2.457-1.995,4.22-4.787,4.22
		c-1.89,0-3.485-0.798-4.598-2.436L67.134,44.914z"/>
	<path fill="#333333" d="M77.13,44.158c0-3.863,2.708-6.614,5.501-6.614c2.205,0,3.653,1.554,3.653,4.094
		c0,3.863-2.729,6.614-5.522,6.614C78.558,48.252,77.13,46.698,77.13,44.158z M78.747,44.053c0,1.848,0.777,2.855,2.184,2.855
		c1.89,0,3.716-2.31,3.716-5.165c0-1.848-0.777-2.876-2.184-2.876C80.594,38.867,78.747,41.197,78.747,44.053z"/>
	<path fill="#333333" d="M95.482,48H94.16l0.168-1.554h-0.084c-1.113,0.987-2.289,1.806-3.527,1.806
		c-1.722,0-2.415-0.987-2.415-2.541c0-0.483,0.042-0.861,0.168-1.407l1.302-6.509h1.617l-1.281,6.299
		c-0.105,0.546-0.168,0.84-0.168,1.197c0,1.029,0.462,1.575,1.512,1.575c0.798,0,1.785-0.567,3.023-1.848l1.449-7.223h1.596
		L95.482,48z"/>
	<path fill="#333333" d="M100.88,37.796h1.323l-0.231,1.953h0.084c0.819-1.239,1.911-2.205,3.17-2.205
		c0.378,0,0.672,0.063,0.966,0.189l-0.567,1.428c-0.21-0.105-0.504-0.168-0.882-0.168c-1.008,0-2.142,0.903-3.002,2.562L100.46,48
		h-1.596L100.88,37.796z"/>
	<path fill="#333333" d="M111.653,37.544c1.218,0,2.037,0.546,2.646,1.239l-0.945,1.008c-0.525-0.63-1.008-0.924-1.806-0.924
		c-2.037,0-3.947,2.394-3.947,5.186c0,1.848,0.798,2.855,2.415,2.855c0.903,0,1.638-0.42,2.268-0.903l0.714,1.05
		c-0.735,0.567-1.785,1.197-3.275,1.197c-2.226,0-3.758-1.491-3.758-4.094C105.963,40.357,108.692,37.544,111.653,37.544z"/>
	<path fill="#333333" d="M120.242,37.544c2.289,0,3.149,1.596,3.149,3.695c0,0.819-0.231,1.617-0.357,1.995h-6.635
		c-0.378,2.625,0.987,3.737,2.771,3.737c0.798,0,1.638-0.399,2.289-0.882l0.63,1.071c-0.819,0.588-1.974,1.092-3.296,1.092
		c-2.415,0-4.01-1.533-4.01-4.262C114.783,40.147,117.575,37.544,120.242,37.544z M121.921,42.142
		c0.063-0.336,0.105-0.651,0.105-1.05c0-1.155-0.504-2.268-1.974-2.268c-1.491,0-2.96,1.302-3.485,3.317H121.921z"/>
	<path fill="#333333" d="M126.08,47.202c0-0.714,0.609-1.47,1.407-1.47c0.609,0,0.966,0.462,0.966,1.071
		c0,0.714-0.567,1.449-1.386,1.449C126.458,48.252,126.08,47.811,126.08,47.202z M131.308,36.851c0-1.155-0.693-1.827-1.806-1.827
		c-0.798,0-1.596,0.42-2.205,1.071l-0.861-0.966c0.819-0.84,1.995-1.449,3.254-1.449c1.953,0,3.191,1.092,3.191,2.897
		c0,3.401-4.073,4.136-4.346,7.328l-1.386-0.126C127.361,40.231,131.308,39.434,131.308,36.851z"/>
</g>
<g id="WEvSG4_1_">
	<g>
		<path fill-rule="evenodd" clip-rule="evenodd" fill="#999999" d="M115.71,120.07c0-4.05,0.11-8.104-0.052-12.148
			c-0.068-1.696,0.667-3.207,0.64-4.854c-0.003-0.18,0.276-0.509,0.446-0.524c0.982-0.088,2.03,0.188,2.871-0.59
			c1.442,0.384,2.884,0.769,4.326,1.153c0.38,1.252,1.465,2.195,1.417,3.661c-0.081,2.446-0.011,4.897-0.026,7.345
			c-0.008,1.353-0.488,2.613-1.01,3.817c-0.461,1.065-0.871,2.219-2.118,2.774c-0.466,0.209-0.462,0.903,0.117,1.042
			c2.528,0.604,2.782,2.775,2.949,4.668c0.255,2.897,0.055,5.834,0.077,8.753c0.004,0.626-0.248,0.812-0.831,0.766
			c-0.468-0.038-0.96,0.07-1.404-0.039c-0.242-0.059-0.574-0.43-0.58-0.667c-0.046-1.977-0.15-3.966,0.015-5.93
			c0.121-1.432-0.438-2.66-0.761-3.95c-0.202-0.81-0.96-1.395-1.73-1.758c-0.997-0.47-1.506-0.102-1.51,1.023
			c-0.011,3.014,0.002,6.028-0.006,9.042c-0.003,1.771-0.012,1.746-1.85,1.719c-0.656-0.01-1.041-0.075-0.998-0.896
			c0.069-1.314,0.018-2.636,0.018-3.955C115.71,127.04,115.71,123.555,115.71,120.07z M118.542,111.963
			c0,2.342-0.017,4.685,0.033,7.026c0.004,0.178,0.682,0.525,0.711,0.492c0.95-1.059,2.259-1.704,2.716-3.321
			c0.771-2.727,1.229-5.446,1.053-8.261c-0.062-1.009-0.723-1.761-1.347-2.538c-0.59-0.736-1.31-0.52-2.025-0.583
			c-0.758-0.067-1.199,0.036-1.163,1.001C118.593,107.838,118.542,109.901,118.542,111.963z"/>
		<path fill-rule="evenodd" clip-rule="evenodd" fill="#999999" d="M150.472,135.362c-1.437-0.017-1.417,0.21-1.343-1.357
			c0.105-2.216-0.958-4.311-0.614-6.561c0.068-0.449-0.454-0.96-0.499-1.46c-0.052-0.572-0.169-0.853-0.795-0.822
			c-0.752,0.037-1.509-0.009-2.262,0.014c-0.642,0.02-1.558-0.156-1.86,0.188c-0.476,0.54-0.648,1.431-0.747,2.199
			c-0.12,0.928,0.042,1.889-0.044,2.824c-0.124,1.343-0.308,2.685-0.571,4.007c-0.158,0.794-1.959,1.383-2.581,0.884
			c-0.167-0.134-0.247-0.5-0.215-0.739c0.155-1.152,0.358-2.298,0.553-3.445c0.194-1.146-0.505-2.435,0.553-3.457
			c0.094-0.091,0.036-0.367,0.009-0.552c-0.424-2.794,0.429-5.507,0.677-8.243c0.215-2.377,0.157-4.794,0.564-7.112
			c0.254-1.447,0.212-2.906,0.518-4.298c0.295-1.342,0.518-2.646,0.534-4.021c0.016-1.368,0.804-2.049,2.129-2.011
			c0.708,0.021,1.388-0.13,2.102,0.443c0.412,0.332,0.777,0.375,0.874,1.058c0.354,2.486,1.304,4.884,1.099,7.457
			c0.838,1.245,0.429,2.664,0.592,4.006c0.151,1.244,0.364,2.52,0.644,3.705c0.366,1.55,0.141,3.134,0.541,4.577
			c0.428,1.548,0.196,3.122,0.575,4.573c0.306,1.17,0.39,2.298,0.499,3.464c0.099,1.062,0.474,2.104,0.52,3.163
			C151.988,135.415,152.225,135.391,150.472,135.362z M145.198,122.338c0.376,0,0.757-0.039,1.127,0.008
			c0.826,0.104,1.183-0.162,1.105-1.056c-0.222-2.552-0.39-5.107-0.578-7.661c-0.926-0.811-0.31-1.943-0.604-2.856
			c-0.337-1.046-0.6-2.061-0.533-3.162c0.051-0.84,0.092-1.695-0.793-2.207c-0.264,0.608-0.537,1.212-0.789,1.826
			c-0.066,0.16-0.095,0.343-0.109,0.519c-0.193,2.553-0.386,5.107-0.566,7.662c-0.129,1.809,0.231,3.625-0.517,5.428
			c-0.471,1.135-0.056,1.475,1.129,1.5C144.446,122.346,144.823,122.338,145.198,122.338z"/>
		<path fill-rule="evenodd" clip-rule="evenodd" fill="#999999" d="M174.035,108.188c-0.246,3.526,0.987,6.974,0.563,10.509
			c0.966,2.019,0.455,4.173,0.555,6.27c0.061,1.267,0.95,2.392,0.595,3.727c-0.031,0.114,0.173,0.29,0.269,0.438
			c0.093-0.151,0.257-0.294,0.271-0.45c0.309-3.578,1.827-6.96,1.708-10.605c1.105-2.77,0.729-5.812,1.64-8.646
			c0.517-1.607,0.436-3.406,0.626-5.118c0.04-0.36,0.035-0.735,0.142-1.073c0.392-1.236,0.741-1.392,2.521-1.289
			c0.808,0.046,0.935,0.365,0.553,1.058c-0.207,0.374-0.355,0.829-0.37,1.252c-0.1,2.899-0.954,5.685-1.254,8.567
			c-0.217,2.093-0.558,4.262-1.098,6.308c-0.657,2.489-0.38,5.17-1.626,7.515c0.292,1.583-0.42,3.043-0.558,4.572
			c-0.073,0.807-0.009,1.56-0.501,2.355c-0.285,0.46-0.208,1.216-0.779,1.642c-0.666,0.496-0.933-0.311-1.406-0.414
			c-0.869-0.187-1.877,0.382-2.624-0.497c-0.776-0.912-0.377-1.996-0.321-2.959c0.194-3.348-1.032-6.596-0.605-9.946
			c-0.978-1.822-0.395-3.799-0.578-5.701c-0.13-1.342-0.438-2.667-0.535-4.009c-0.093-1.313,0.326-2.766-0.103-3.927
			c-0.609-1.651-0.346-3.26-0.492-4.884c-0.066-0.745,0.211-1.022,0.944-0.937c0.372,0.044,0.754,0.033,1.129,0.002
			c0.623-0.052,0.609,0.335,0.808,0.802C174.269,104.531,173.965,106.369,174.035,108.188z"/>
		<path fill-rule="evenodd" clip-rule="evenodd" fill="#999999" d="M164.406,85.543c0,3.956-0.016,7.912,0.013,11.868
			c0.005,0.759-0.041,1.198-1.012,1.172c-1.721-0.045-2.753-0.502-2.908-2.133c-0.282-2.949-1.633-5.632-1.858-8.608
			c-0.076-1.003-0.061-2.33-0.56-3.103c-0.726-1.125-0.239-2.172-0.475-3.216c-0.038-0.165-0.15-0.313-0.229-0.47
			c-0.111,0.204-0.317,0.408-0.318,0.612c-0.018,4.616-0.012,9.231-0.016,13.846c0,0.559,0.13,1.192-0.085,1.658
			c-0.267,0.575-0.817,0.949-1.607,0.843c-0.761-0.101-0.562-0.615-0.563-1.027c-0.01-7.818,0.009-15.636-0.029-23.454
			c-0.004-0.932,0.352-1.057,1.145-1.039c1.477,0.035,1.988,0.299,2.257,1.635c0.266,1.319,0.368,2.67,0.593,4
			c0.132,0.779,0.422,1.532,0.54,2.312c0.106,0.708,0.332,1.4,0.47,2.047c0.278,1.295,0.273,2.656,0.642,3.991
			c0.52,1.877,0.785,3.823,1.176,5.736c0.051,0.25,0.167,0.508,0.323,0.708c0.149,0.193,0.388,0.316,0.588,0.47
			c0.071-0.159,0.204-0.318,0.206-0.477c0.012-2.731,0.429-5.546-0.091-8.176c-0.753-3.812-0.195-7.59-0.479-11.37
			c-0.065-0.861,0.391-0.906,1.016-0.861c0.6,0.043,1.302-0.256,1.285,0.883C164.37,77.442,164.406,81.492,164.406,85.543z"/>
		<path fill-rule="evenodd" clip-rule="evenodd" fill="#999999" d="M105.518,115.267c0,1.508,0.082,3.022-0.018,4.523
			c-0.214,3.251,0.966,6.4,0.625,9.667c-0.076,0.732,0.299,1.551,0.601,2.274c0.381,0.916,1.521,1.083,2.308,0.388
			c0.628-0.556,1.18-1.109,1.043-2.126c-0.136-1.019-0.049-2.069-0.024-3.105c0.024-1.067,0.508-1.67,1.32-1.717
			c0.893-0.052,1.449,0.488,1.498,1.537c0.039,0.846,0.269,1.812-0.045,2.521c-0.715,1.616-0.492,3.489-1.601,5.007
			c-0.471,0.647-0.781,1.176-1.645,1.133c-0.659-0.032-1.346,0.11-1.973-0.032c-1.099-0.249-2.062-0.559-2.717-1.798
			c-1.032-1.954-1.733-3.881-1.656-6.115c0.082-2.354-0.005-4.712,0.025-7.068c0.024-1.833-0.837-3.533-0.617-5.426
			c0.206-1.767-0.036-3.582,0.066-5.366c0.103-1.773,0.67-3.479,1.018-5.206c0.418-2.073,1.74-2.658,3.361-2.934
			c1.795-0.305,3.131,0.65,4.088,2.12c1.027,1.578,1.339,3.33,1.132,5.182c-0.046,0.412,0.271,1.036-0.422,1.134
			c-0.537,0.075-1.104-0.025-1.65-0.098c-0.083-0.011-0.149-0.3-0.184-0.468c-0.197-0.957-0.55-1.921-0.525-2.875
			c0.027-1.072-0.727-1.492-1.317-1.999c-0.503-0.432-1.253-0.401-1.691,0.236c-0.55,0.803-1.056,1.604-1.024,2.694
			C105.569,109.987,105.518,112.627,105.518,115.267z"/>
		<path fill-rule="evenodd" clip-rule="evenodd" fill="#999999" d="M185.356,118.897c0-5.088,0.016-10.176-0.016-15.265
			c-0.005-0.805,0.132-1.162,1.05-1.133c2.166,0.068,4.334,0.044,6.501,0.009c0.692-0.011,1.071,0.133,0.967,0.917
			c-0.05,0.37-0.036,0.755-0.003,1.129c0.054,0.598-0.179,0.824-0.789,0.807c-1.224-0.034-2.45-0.028-3.674,0.007
			c-0.216,0.006-0.577,0.199-0.614,0.364c-0.237,1.042-0.541,2.096-0.565,3.152c-0.072,3.202,0.011,6.407-0.049,9.61
			c-0.018,0.949,0.373,1.089,1.157,1.023c0.655-0.055,1.32-0.042,1.978-0.003c0.955,0.056,1.393,0.58,1.418,1.616
			c0.026,1.069-0.386,1.647-1.268,1.772c-0.093,0.013-0.188-0.001-0.283,0.002c-0.929,0.029-1.859,0.061-2.789,0.092
			c-0.063,1.01-0.131,2.02-0.188,3.031c-0.016,0.281-0.002,0.564-0.002,0.848c0,1.79,0,3.581,0,5.371
			c1.75,0.095,3.503,0.269,5.252,0.253c1.006-0.008,1,0.477,0.985,1.2c-0.043,2.046,0.15,1.637-1.623,1.656
			c-1.979,0.022-3.957,0.005-5.936,0.005c-0.188,0-0.38-0.021-0.565,0.003c-0.714,0.095-0.988-0.161-0.961-0.921
			c0.055-1.6,0.016-3.203,0.016-4.805C185.356,126.059,185.356,122.478,185.356,118.897z"/>
		<path fill-rule="evenodd" clip-rule="evenodd" fill="#999999" d="M128.734,119.034c0-5.182,0.009-10.365-0.012-15.547
			c-0.003-0.679,0.112-1.009,0.908-0.984c1.883,0.058,3.769,0.011,5.653,0.021c1.27,0.008,2.042,0.874,1.915,2.223
			c-0.021,0.22-0.426,0.568-0.666,0.579c-1.316,0.057-2.637,0.041-3.956,0.021c-0.613-0.008-1.042-0.014-1.032,0.858
			c0.047,4.145,0.027,8.292,0.013,12.438c-0.001,0.535,0.05,0.925,0.721,0.87c0.281-0.022,0.565-0.008,0.848-0.003
			c2.538,0.04,2.518,0.04,2.418,2.569c-0.022,0.569-0.132,0.843-0.765,0.84c-1.019-0.004-2.038,0.072-3.057,0.115
			c-0.053,1.109-0.111,2.218-0.154,3.327c-0.018,0.471-0.005,0.942-0.002,1.414c0.01,1.503,0.022,3.006,0.034,4.51
			c1.473,0.083,2.946,0.168,4.419,0.247c0.282,0.015,0.636-0.106,0.834,0.022c0.531,0.347,1.19,0.743,0.916,1.52
			c-0.167,0.476-0.538,0.91-0.908,1.268c-0.147,0.141-0.543,0.024-0.827,0.023c-2.35-0.011-4.701-0.023-7.052-0.035
			c-0.082-2.322-0.207-4.642-0.237-6.964C128.703,125.253,128.734,122.144,128.734,119.034z"/>
		<path fill-rule="evenodd" clip-rule="evenodd" fill="#999999" d="M155.913,121.489c0-2.548,0.039-5.096-0.012-7.643
			c-0.04-2.007,0.268-4.026-0.508-6.012c-0.35-0.899-0.201-1.993-0.28-2.999c-0.936-0.017-1.874-0.057-2.811-0.044
			c-1.78,0.026-1.472,0.01-1.481-1.516c-0.009-1.3,0.006-1.314,1.39-1.317c3.303-0.009,6.608,0.069,9.907-0.042
			c1.173-0.039,1.261,0.438,1.162,1.315c-0.031,0.28,0.072,0.596-0.025,0.841c-0.107,0.271-0.346,0.517-0.583,0.699
			c-0.12,0.091-0.366,0.005-0.555,0.017c-1.102,0.069-2.204,0.144-3.307,0.216c-0.022,1.123-0.061,2.247-0.062,3.371
			c-0.005,8.775,0.001,17.551-0.016,26.328c-0.001,0.468,0.329,1.284-0.623,1.198c-0.586-0.053-1.395,0.566-1.735-0.747
			c-0.175-0.669-0.456-1.336-0.457-2.057C155.908,129.227,155.913,125.358,155.913,121.489z"/>
		<path fill-rule="evenodd" clip-rule="evenodd" fill="#999999" d="M130.432,78.899c0.057,2.946,0.905,5.84,0.567,8.812
			c1.093,1.566,0.088,3.468,0.764,5.054c0.739,1.737,0.157,3.49,0.35,5.221c0.043,0.39,0.283,0.966-0.421,1.139
			c-0.625,0.155-1.718-0.356-1.807-0.939c-0.084-0.552-0.018-1.128-0.018-1.694c0-0.848,0.085-1.707-0.023-2.541
			c-0.112-0.866-0.202-1.878-0.706-2.498c-0.321-0.395-1.376-0.21-2.105-0.251c-0.563-0.031-1.134,0.037-1.694-0.017
			c-0.786-0.073-1.133,0.085-1.168,1.022c-0.072,1.905-0.374,3.8-0.516,5.704c-0.054,0.717-0.493,0.706-0.946,0.63
			c-0.467-0.079-1.208,0.4-1.324-0.517c-0.059-0.464-0.066-0.949,0.001-1.411c0.153-1.058,0.359-2.108,0.557-3.16
			c0.197-1.051-0.503-2.263,0.564-3.158c-0.28-1.582,0.504-3.044,0.538-4.572c0.058-2.542,0.833-4.943,1.381-7.373
			c0.157-0.699,0.203-1.407,0.355-2.099c0.15-0.684,0.351-1.358,0.562-2.028c0.583-1.855,0.933-1.778,2.891-1.447
			c2.361,0.398,1.608,2.344,2.146,3.599C130.684,77.096,130.432,78.051,130.432,78.899z M128.753,82.921
			c0.334-2.13-1.01-4.501-0.609-7.016c0.026-0.161-0.274-0.375-0.423-0.563c-0.229,0.202-0.613,0.373-0.663,0.612
			c-0.418,1.999-1.05,3.941-1.209,6.014c-0.124,1.612-0.611,3.187-0.58,4.851c0.009,0.498-0.789,1.136-0.463,1.719
			c0.432,0.773,1.329,0.282,2.016,0.381c0.461,0.066,0.943-0.023,1.409,0.021c1.043,0.097,1.351-0.018,1-1.345
			C128.851,86.152,128.699,84.751,128.753,82.921z"/>
		<path fill-rule="evenodd" clip-rule="evenodd" fill="#999999" d="M143.456,82.734c0-1.036-0.068-2.076,0.015-3.105
			c0.13-1.621,0.341-3.237,0.562-4.849c0.09-0.658,1.259-1.66,1.941-1.695c0.751-0.039,1.507,0.029,2.259-0.017
			c1.46-0.088,2.706,0.709,3.181,2.479c0.307,1.143,0.611,2.24,0.554,3.446c-0.075,1.597-0.384,3.317,0.084,4.767
			c0.478,1.478,0.4,2.877,0.451,4.317c0.057,1.598-0.146,3.22,0.057,4.794c0.21,1.622-0.604,3.02-0.646,4.571
			c-0.018,0.65-0.538,1.133-1.325,1.119c-1.036-0.019-2.071,0.003-3.107-0.007c-1.694-0.014-2.458-0.401-2.772-1.926
			c-0.197-0.957-0.565-1.895-0.648-2.837c-0.322-3.676-0.493-7.365-0.72-11.049C143.379,82.74,143.417,82.737,143.456,82.734z
			 M150.25,86.952c0-2.45-0.127-4.91,0.055-7.347c0.088-1.183-0.503-2.097-0.689-3.15c-0.146-0.827-0.817-1.623-1.921-1.689
			c-0.932-0.055-1.288,0.726-1.721,1.249c-0.292,0.352-0.24,1.037-0.244,1.574c-0.021,2.639,0.076,5.281-0.033,7.916
			c-0.111,2.688,0.975,5.265,0.601,7.967c-0.133,0.962,0.483,1.706,1.019,2.391c0.365,0.465,0.85,1.354,1.502,0.916
			c0.61-0.41,1.522-0.854,1.437-1.91c-0.03-0.375-0.004-0.753-0.004-1.131C150.25,91.476,150.25,89.214,150.25,86.952z"/>
		<path fill-rule="evenodd" clip-rule="evenodd" fill="#999999" d="M103.819,85.819c0-3.962-0.009-7.925,0.02-11.888
			c0.002-0.286,0.269-0.811,0.425-0.816c1.115-0.035,2.252-0.083,3.343,0.105c1.25,0.216,2.042,1.208,2.333,2.346
			c0.376,1.474,0.657,3.027,0.62,4.537c-0.036,1.52,0.469,3.064-0.427,4.626c-0.438,0.764,0,1.983-1.046,2.705
			c-0.208,0.144-0.121,1.078,0.123,1.461c1.792,2.826,1.389,5.967,1.397,9.047c0.003,0.958-0.775,0.541-1.244,0.604
			c-0.604,0.082-1.075,0.041-1.034-0.84c0.073-1.601,0.113-3.214-0.008-4.809c-0.101-1.336-0.465-2.606-1.547-3.61
			c-0.657-0.609-0.85,0.031-0.991,0.281c-0.207,0.366-0.249,0.86-0.254,1.301c-0.022,2.264-0.045,4.529,0.008,6.792
			c0.019,0.8-0.309,0.922-0.987,0.914c-0.656-0.009-0.743-0.313-0.74-0.869C103.828,93.744,103.819,89.781,103.819,85.819z
			 M105.518,80.885c0,1.604-0.005,3.208,0.003,4.811c0.002,0.437-0.133,1.06,0.604,0.948c0.559-0.085,1.348,0.509,1.658-0.471
			c0.185-0.583,0.523-1.161,0.54-1.748c0.064-2.262,0.089-4.53-0.01-6.791c-0.033-0.751-0.381-1.549-0.789-2.197
			c-0.2-0.318-0.909-0.526-1.309-0.436c-0.298,0.068-0.648,0.686-0.666,1.072C105.475,77.676,105.518,79.281,105.518,80.885z"/>
		<path fill-rule="evenodd" clip-rule="evenodd" fill="#999999" d="M168.37,118.925c0,5.089-0.046,10.179,0.035,15.267
			c0.018,1.124-0.378,1.222-1.293,1.19c-1.552-0.054-1.57-0.002-1.57-1.439c-0.004-9.99-0.005-19.98,0-29.969
			c0-1.467,0.017-1.467,1.537-1.453c1.273,0.012,1.287,0.011,1.289,1.42C168.373,108.935,168.37,113.93,168.37,118.925z"/>
		<path fill-rule="evenodd" clip-rule="evenodd" fill="#999999" d="M139.761,93.457c-0.538-1.862-0.912-3.792-1.651-5.57
			c-1.103-2.654-2.454-5.205-3.717-7.791c-0.896-1.834-0.533-3.766-0.492-5.675c0.724-0.186,0.159-1.661,1.365-1.366
			c3.117-1.719,5.254,0.377,5.876,3.291c0.172,0.811,0.41,1.843-0.442,2.622c-0.542,0.494-0.824,0.476-1.216-0.177
			c-0.433-0.722-0.574-1.473-0.58-2.315c-0.01-1.229-0.695-1.88-1.604-1.701c-0.963,0.191-2.041,1.602-1.753,2.444
			c0.364,1.068,0.811,2.118,1.321,3.126c1.221,2.419,2.625,4.753,3.726,7.224c1.454,3.267,1.522,5.354,0.659,8.63
			c-0.321,1.219-0.772,2.119-1.917,2.316c-1.558,0.269-3.252,0.104-4.208-1.297c-0.771-1.13-1.198-2.543-1.29-3.973
			c-0.051-0.798,0.526-1.254,1.205-0.889c0.429,0.232,0.802,0.694,1.03,1.14c0.355,0.693,0.511,1.487,0.855,2.187
			c0.27,0.546,0.826,0.752,1.429,0.6c0.676-0.169,1.143-0.56,1.136-1.335c-0.004-0.471,0-0.942,0-1.414
			C139.582,93.509,139.671,93.483,139.761,93.457z"/>
		<path fill-rule="evenodd" clip-rule="evenodd" fill="#999999" d="M171.767,92.522c0.283-1.741-0.535-3.465-1.313-5.165
			c-1.126-2.458-2.644-4.725-3.404-7.364c-0.523-1.821-0.492-4.525,0.174-5.838c0.37-0.73,0.806-1.182,1.69-1.089
			c0.56,0.059,1.242-0.187,1.671,0.056c0.683,0.386,1.623,0.379,1.932,1.49c0.355,1.275,0.998,2.444,0.98,3.844
			c-0.012,0.873-0.435,0.887-1.046,0.851c-0.606-0.037-1.355,0.24-1.271-0.898c0.097-1.295,0.229-2.658-1.208-3.456
			c-0.479-0.266-0.803-0.338-1.047,0.291c-0.388,0.994-0.649,1.827-0.268,3.037c0.876,2.782,2.122,5.359,3.482,7.902
			c1.337,2.501,2.121,5.131,1.875,7.986c-0.083,0.968-0.171,2.019-0.603,2.852c-0.437,0.843-1.102,1.748-2.381,1.551
			c-0.553-0.084-1.136-0.068-1.694-0.001c-0.801,0.097-1.259-0.384-1.515-0.967c-0.8-1.823-1.435-3.699-1.151-5.747
			c0.124-0.888,0.662-1.315,1.531-1.202c0.264,0.034,0.68,0.335,0.699,0.547c0.082,0.841,0.058,1.695,0.026,2.542
			c-0.024,0.665,0.121,1.193,0.513,1.787c0.25,0.378,0.232,0.751,0.839,0.783c0.804,0.04,1.315-0.428,1.443-1.022
			C171.898,94.481,171.767,93.603,171.767,92.522z"/>
		<path fill-rule="evenodd" clip-rule="evenodd" fill="#999999" d="M112.879,85.664c0-3.765-0.007-7.531,0.003-11.296
			c0.003-1.272,0.023-1.281,1.414-1.289c1.694-0.009,3.39,0.047,5.082-0.022c0.856-0.036,0.91,0.393,0.863,1.02
			c-0.044,0.599,0.264,1.367-0.88,1.284c-1.124-0.083-2.258-0.026-3.388-0.016c-1.411,0.012-1.183,0.071-1.465,1.293
			c-0.244,1.054,1.484,1.96,0.08,2.94c1.075,0.893,0.257,2.132,0.592,3.138c0.146,0.44,0.628,0.876,1.066,1.081
			c0.386,0.181,0.931,0.09,1.393,0.028c1.129-0.152,0.87,0.643,0.903,1.252c0.032,0.599,0.048,1.096-0.839,1.046
			c-0.815-0.046-1.97-0.197-2.374,0.246c-0.43,0.472-0.176,1.586-0.181,2.421c-0.013,2.165,0.045,4.332-0.027,6.494
			c-0.032,0.955,0.382,1.063,1.159,1.021c1.033-0.055,2.075,0.046,3.104-0.032c0.87-0.066,0.898,0.407,0.856,1.025
			c-0.041,0.602,0.253,1.347-0.886,1.276c-2.132-0.132-4.271-0.16-6.406-0.231c-0.023-1.967-0.057-3.935-0.067-5.901
			C112.87,90.183,112.879,87.923,112.879,85.664z"/>
		<path fill-rule="evenodd" clip-rule="evenodd" fill="#999999" d="M186.513,94.027c-1.509,0-3.023,0.073-4.526-0.021
			c-1.461-0.09-2.856-0.511-3.777-1.771c-0.411-0.562-0.453-1.251,0.196-1.708c0.57-0.402,1.182-0.83,1.841-1.005
			c3.11-0.828,5.727-0.762,9.434-0.05c0.91,0.174,1.885-0.028,2.824,0.042c0.805,0.061,1.294,0.498,1.359,1.399
			c0.142,1.983-0.741,3.025-2.822,3.104C189.534,94.073,188.021,94.027,186.513,94.027z M186.206,90.63c-0.755,0-1.51,0-2.264,0
			c-0.943,0-1.888,0.028-2.83-0.009c-0.795-0.032-1.294,0.445-1.378,1.076c-0.126,0.941,0.721,0.531,1.189,0.632
			c0.866,0.186,1.726,0.508,2.596,0.54c2.168,0.078,4.341,0.074,6.509,0c0.776-0.027,1.564-0.291,2.306-0.56
			c0.577-0.211,0.473-0.639,0.144-1.088c-0.38-0.518-0.854-0.618-1.459-0.604C189.414,90.654,187.81,90.63,186.206,90.63z"/>
		<path fill-rule="evenodd" clip-rule="evenodd" fill="#999999" d="M187.516,83.269c-1.411,0-2.824-0.041-4.234,0.011
			c-1.652,0.061-3.162-0.982-4.849-0.583c-0.071,0.017-0.229-0.046-0.233-0.084c-0.078-0.726-0.278-1.477-0.152-2.168
			c0.078-0.427,0.596-0.89,1.03-1.1c0.381-0.184,0.922-0.039,1.393-0.039c1.223,0,2.628-0.379,3.625,0.096
			c1.256,0.6,2.171-0.215,3.25-0.12c1.213,0.107,2.444,0.016,3.667,0.026c1.652,0.013,1.643,0.021,2.279,1.892
			c0.14,0.409,0.44,0.77,0.541,1.184c0.119,0.487,0.022,0.903-0.668,0.894C191.281,83.253,189.399,83.269,187.516,83.269z
			 M188.872,82.137c0.931,0,1.863,0.011,2.793-0.012c0.153-0.004,0.42-0.143,0.432-0.242c0.028-0.245-0.005-0.535-0.122-0.748
			c-0.129-0.235-0.373-0.567-0.578-0.575c-1.56-0.061-3.126-0.104-4.682-0.015c-0.283,0.016-0.695,0.638-0.757,1.027
			c-0.12,0.743,0.546,0.542,0.958,0.557C187.567,82.155,188.219,82.137,188.872,82.137z M181.686,81.57
			c0.649,0,1.3,0.026,1.947-0.017c0.174-0.011,0.335-0.231,0.501-0.355c-0.131-0.131-0.242-0.298-0.396-0.388
			c-1.279-0.741-2.622-0.371-3.94-0.166c-0.222,0.035-0.397,0.371-0.594,0.567c0.271,0.12,0.534,0.315,0.813,0.343
			C180.569,81.609,181.129,81.57,181.686,81.57z"/>
		<path fill-rule="evenodd" clip-rule="evenodd" fill="#999999" d="M190.438,97.425c-3.295,0.388-6.591,0.76-9.919,0.56
			c-0.577-0.035-0.847,0.13-0.844,0.759c0.001,0.33-0.153,0.688-0.325,0.982c-0.115,0.196-0.43,0.46-0.571,0.417
			c-0.238-0.072-0.579-0.361-0.583-0.564c-0.034-1.638-0.021-3.278,0.04-4.915c0.007-0.207,0.35-0.515,0.58-0.56
			c0.159-0.032,0.43,0.282,0.579,0.492c0.147,0.206,0.311,0.491,0.281,0.717c-0.133,1.001,0.454,0.994,1.181,0.99
			c3.855-0.022,7.71-0.01,11.565-0.01c0.375,0,0.757-0.034,1.125,0.019c0.119,0.018,0.299,0.28,0.283,0.408
			c-0.032,0.243-0.176,0.668-0.29,0.674C192.508,97.447,191.472,97.425,190.438,97.425z"/>
		<path fill-rule="evenodd" clip-rule="evenodd" fill="#999999" d="M186.135,77.606c-2.264,0-4.529-0.015-6.793,0.01
			c-0.613,0.007-0.839-0.215-0.786-0.812c0.034-0.375-0.117-0.815,0.033-1.119c0.322-0.657-0.829-2.016,0.654-1.957
			c0.87,0.035,0.351,1.235,0.425,1.899c0.061,0.542,0.103,0.883,0.76,0.855c0.848-0.035,1.698,0.005,2.546-0.013
			c0.551-0.012,1.286,0.125,1.597-0.168c0.301-0.281,0.126-1.038,0.24-1.568c0.043-0.199,0.311-0.351,0.477-0.524
			c0.212,0.221,0.498,0.409,0.614,0.671c0.104,0.237,0.043,0.559,0.018,0.839c-0.057,0.632,0.254,0.777,0.832,0.765
			c1.509-0.032,3.021-0.061,4.528,0.009c0.84,0.039,0.919-0.367,0.879-1.011c-0.03-0.47-0.097-0.971,0.034-1.403
			c0.063-0.21,0.545-0.41,0.834-0.403c0.278,0.006,0.784,0.277,0.788,0.441c0.027,1.112-0.052,2.227-0.096,3.341
			c-0.923,0.05-1.846,0.128-2.769,0.142C189.344,77.624,187.739,77.606,186.135,77.606z"/>
	</g>
</g>
</svg>
