<svg xmlns="http://www.w3.org/2000/svg" viewBox="0 0 500 270" enable-background="new 0 0 500 270"><g id="Layer_2"><path id="prea" opacity=".7" d="M47.5 170.9l-12.8 4.9-13.8 9.2-2.1 12.6-9.1 2.1-5.7 5-1.7 13.6 22.3-1.7 11.5-1.3 2.7-.4 8.6-1 19.2-3.2 5.2-1.1 4.8-2.1-21.1-43.6z"/><path id="prel" opacity=".7" d="M88.2 168.1l-6.9-30.3-3.5 3.7-2.2 10.3-14.3 7.1-5.8 5 21.1 43.6 15.5-6.6 29.6-15.3 13.6-1.5-4-27.5z"/><path id="prel2" opacity=".7" d="M131.3 156.6l2.9-11.6-19.5-25.9-5.7 1.8-7.4 12s-3.7-1.1-6.4-1.1-2.7-3.8-2.7-3.8l-2.2.5-9.2 9.4 6.9 30.3 43.3-11.6z"/><path id="pret" opacity=".7" d="M204.3 100.8L201 73.9l-22.8 2.8-23.5 4.4-15-2.5V92l-1.5 7.1-9.5 8.7-5.3 11.9-7.5-1.1-1.2.5 19.5 25.8-2.9 11.7 4 27.5 10.4-1.2 36.8-1.1-8.1-73.5z"/><path id="preh" opacity=".7" d="M230.2 70.3L201 73.9l2.4 20.1.9 6.8-3.5.9-5.1 1.2-21.3 5.4 8.1 73.5 17.3-.5 1 .7 13.3-3 5.7-1.3 7.8-1.8 26.1-5.9-18.1-100.6z"/><path id="prei" opacity=".7" d="M235.6 69.4L253.7 170l30.7-7-18.6-98.3z"/><path id="pren" opacity=".7" d="M346.3 58.5l4-10.1-28.5 5.8-8.1 1.7-5 1-22.3 4.7-20.6 3.1 18.6 98.3 23.9-5.4 5.4-1.3 8.1-1.8 56.1-12.8-18.6-15.4z"/><path id="preg" opacity=".7" d="M416.6 34.1L351.8 48l-1.5.4-4 10.1 13 67.8 18.6 15.4 63.6-14.4L431 78.5l-.9-4.6-1-4.5-1.3-6.3-1.1-5-.7-3.1-4.7-22.2z"/><path id="pres" opacity=".7" d="M498.3 74.1l-2.2-7.7-7.9-8.1-4.4-8.2-7.3-13.6-5.6-15.8-16.9 4-32.7 8.1 1.8 8.5 8.5 39.7 1.8 8.8 1.8 8 6.3 29.5 15.3-3.5.1-.1-2.7-4.2h-6.8v-3.6l-.8-4.3 5.4 4.3 4.8.6 8 1.1 12.2-5.4 4.3-9.9 2.1-7 8.5-4.4 1-14.2-2.6-2.1z"/><path id="preo" opacity=".7" d="M200.8 182l8.8 6.4 5.3 10.9 14.1-2.6 41.3-4.9 9.6 2.8 13.5 8.2-32.1-34.6-6 1.4z"/><path id="prep" opacity=".7" d="M261.3 168.2l32.1 34.6 27.9 17.4 32.7 27.6 17.9-4.5 15.4-1.7 1.6-8.2 6.4-21.7 3.4-4.9-34.7-62.1-16.7 3.8z"/><path id="pree" opacity=".7" d="M364 144.7l34.7 62.1 7.7-10.9 21.3-18 5.7-2.7-2.5-4.9-1.2-2.1-1.3-2.5-1.4-2.7-5.4-10.2-1.4-2.5-1.5-2.8-.8-1.5-6.4-12z"/><path id="pren2" opacity=".7" d="M473.9 142.6l-7.5 7.5-2.1-5.6h-13.8l6.3-20.9-9 2.1-6.3 1.4-4.5 1-25.5 5.9 21.9 41.2 11.3-5.4 4.1-.9 4.9-1.1 3.7 1.7h4.2l10.1-16.5 6.4-12z"/></g><g id="Layer_4"><path id="posta" d="M42.6 168.6l-13 4.8-14.2 9.3-2.1 12.5-2.8.7-3.2 7.7-4.9 11.8 24.7-2 4-15.7 8.2-2.4 8.6 15.4 10.8-1.8 8.9-1.7 5.3-2.3-29.7-36.8z"/><path id="postl" d="M87.3 172.4l-7-28.9-2.1-8.8-4.6 4.5-2.2 10.4-5.5 2.6 11.3 51 16.8-7.6 24.6-12.3 12.7-1.4-6.3-19.4z"/><path id="postl2" d="M123.3 156.6l-2-9.5-2.2-10.3-19.3 5.6-2.8-12.1s-2.8-.8-5.4-.8c-2.7 0-2.7-3.8-2.7-3.8l-2.2.5-2.8 2.8 8.2 35.2 31.2-7.6z"/><path id="postt" d="M199.3 99.1l-4.5-26.8-18.5 2.4-24 4.3-15.2-2.4v13.2l-1.6 7.1-9.8 8.7-3.6 8 13.2-2.3 10.2-1.8 3.7 33.2 2.5 23.9 1.6 14.1h7.4l19.1-1-9.2-74.7z"/><path id="posth" d="M229.5 68.1l-25.8 3.2 3.3 17.8 6.4 34.3-7.9 1.9-4.6-20.6-22.8 5.1 8.8 69.5 11.5-.3 15.7-3.5-4.6-30.7 8.3-2 5 30.8 28.3-6.2-18.6-99.7z"/><path id="posti" d="M238 66.8l19.1 99.3 24.4-5.3-19.1-97.7z"/><path id="postn" d="M343.1 64.7l-3.3-15.9-24.3 4.9 9.2 39.6-20.5-37.4-19.8 3.9-16.2 2.4 18.6 97.4 25.1-5.5-7.3-30.8 17 28.7 37.7-8.3-3.5-17.1z"/><path id="postg" d="M411.5 33.9L390 38.4l-10.7 2.2c-20.9 5-29.8 20.4-26.6 40.9l5.7 26.9c5.5 21.7 22.5 29.2 41.1 26.6l37.7-8.3-11.8-54.4-28.7 6.6 7.2 24.8-12.2 2.4-6.5-34.1 38.3-8.4-6.7-30.8-5.3 1.1z"/><path id="posts" d="M493.4 74l-2-6.2-2.6-7.4c-4.6-7.1-11.8-9.1-20.4-8.7l16.5-4.2-9.2-28.8-17.7 4.2-19.2 4.7c-8.6 2.8-12.9 8.7-11.7 18.6l8.2 36.7c3.4 9.7 11.8 12.3 22.8 11.6L438.8 99l5.8 25.9 12.3-3.4 4.1-1.1-2.3-3.6h-6.9v-3.2l-.9-4.3 5.5 4.3 2.7.3 10.5 1.4 12.4-5.5 3.4-7.8 2.8-9.2 8.9-4.1.2-2.3-2.3-7.2-1.6-5.2z"/><path id="posto" d="M227.1 177.7c-6.3 1.8-8.2 6.5-6.1 13.4 1.3 4.7 5.4 7.1 12 7.2l28.4-2.6 5.9-.5c6.2-2.2 8.1-5.9 4.7-11.6l-6.1-7c-4.1-4.2-8.6-5.3-13.4-4.4l-25.4 5.5z"/><path id="postp" d="M264.7 169.6l27.8 24.7 25.8 22.8 37.8 33.4 18.4-4.5 15.8-1.6-38.3-38.5 19.9-5.5c9.2-4 13-10.6 9.1-21.1L370.8 163c-10.4-11.5-19.6-11.9-28.4-10.3l-77.7 16.9z"/><path id="poste" d="M368.4 146.9l35 60.6 6.3-8.8 21.8-17.8 1.9-1-4.9-9.2-19.3 6.9-1.6-3.7 19.1-6.6-6.9-12.9-18.9 6.7-1.6-3.6L418 151l-7.1-13.4z"/><path id="postn2" d="M467.1 147.7l-3.5-1.7-4.6-2.1.5-11.2 1.9-6.1-14.8 3.1 6 18.6-16.1-16.3-21.8 4.7 22.5 41.4 13.4-6.2-8.3-13.8 15.8 12.4 3.8 1.6h4.4l7.3-11.6-4.4-8.5z"/></g><path id="state" opacity=".7" d="M470.9 20.7l5.6 15.8 11.7 21.8 7.9 8.2 2.2 7.6-7.9.5 2.7 2.2-1 14.1-8.5 4.3-2.2 7.1-4.2 9.8-12.2 5.4-7.9-1.1-4.7-.5-5.3-4.3 1 4.3v3.3h6.4l2.7 4.3-6.4 21.2h13.8l2.2 5.4 7.4-7.6 4.2-1.6-6.4 12-10.1 16.3h-4.2l-3.7-1.6-9.1 2.2-17 8.2-21.2 17.9-11.2 15.9-6.4 21.7-1.6 8.2-15.4 1.6-17.9 4.5-32.7-27.6-41.4-25.6-9.6-2.8-41.4 4.9-14.1 2.5-5.3-10.9-9.7-7.2-54.1 1.6-23.9 2.8-29.7 15.3-20.2 8.7-5.3 1.1-19.1 3.2-22.8 2.8-22.3 1.6 1.6-13.6 5.9-4.9 9.1-2.2 2.2-12.5 13.8-9.2 12.8-4.9 13.8-12 14.3-7.1 2.2-10.3 12.8-13 2.2-.5s0 3.8 2.7 3.8 6.4 1.1 6.4 1.1l7.4-12 6.9-2.2 7.4 1.1 5.3-12 9.6-8.7 1.6-7.1V78.6l14.8 2.4 23.4-4.3 52-6.6 56.3-8.7L351.9 48l64.8-14 37.2-9.3 17-4z"/></svg>