<svg xmlns="http://www.w3.org/2000/svg" width="87.5" height="150" viewBox="0 0 87.5 150"><path id="California_1_" opacity=".7" fill="#fff" d="M77 150l2.4-.3.9-1.3.5-1.2-2-.1-.7-1.1.5-1.1V141l1.4-.8 1.7-1.6.3-3.1 1-2.2 1.2-1.3 2.1-1.1.8-.5.5-.9-.6-.5-.6-.9-.6-3.4-1.8-3.3.1-1.7-1.4-2-9.4-14.6L61 85 46.9 64.3 39 52l1.1-4.5 4.3-16.3 5.1-19.7-7.8-2.1-8.5-2.2-7.9-2.6-4.7-1.3-7.2-1.9L9 0 8 3l-.1 4.6L4.7 15l-1.9 1.6-.2.7-1.1.5-.9 2.6-.5 2L1.8 25l1 2.6.7 2.2-.2 4.1L2.1 36l-.4 3.7-.6 2.3 1.1 2.4L4 47.3l1.4 3 .8 2.5-.3 2-.3.3v1.3l3.6 4L9 62l-.4 1.4-.4 1.2.1 5.2 1.3 2.3 1.2 1.6 1.7.3.6 1.7-.7 2.3-1.3 1.1h-.7l-.5 2.4.3 1.8 2 2.7 1 3.3.9 2.9.8 1.9 2.1 3.7.9 1.6.3 1.8 1 .6v1.5l-.5 1.2-1.1 4.5-.3 1.2 1.5 1.7 2.6.3 2.8 1.2 2.4 1.4h1.8l1.8 1.9 1.6 3 .7 1.4 2.4 1.3 3 .5.9 1.3.4 2-.9.4.2.6 2 .5 1.7.1 1.8 2.9 2.4 2.6.5 1.4 1.7 2.6.3 2v5.9l.2 1.1 6.2.9 12.3 1.7L77 150z"/></svg>