<svg xmlns="http://www.w3.org/2000/svg" viewBox="0 0 500 270" enable-background="new 0 0 500 270"><g id="Start"><path id="pretip" opacity=".7" d="M9.5 269.2l32.5-3.5 3.2-.4-9.4-11.5-1 .6z"/><path id="prec" opacity=".7" d="M93.8 204.9L84.2 194l-38.4 41.8-5.5 7.8v7.6l-4.5 2.6 9.4 11.5 27.2-3.1 19.5-.6 7.2-.2-2.5-26.7-.6-6.6-2.2-23.2z"/><path id="preo" opacity=".7" d="M129.7 204.9l-8.2 4.8-9.2 4.1-13.8-3.5-4.7-5.4 5.3 56.5 9.4-7.1 24.3 1.4 8.4-1.2-3.3-37.1z"/><path id="pren" opacity=".7" d="M179.8 182.2l-10.4 7.8-4.2-.9-3.4-.7-1.9-.4-6.8 16.6-14.2 5.2-9.2-4.9 8.2 12.5 3.3 37.1 18.6-2.6 3-.4 3.4-.5 33-4.7-19.4-64.1z"/><path id="prev" opacity=".7" d="M199.8 147.5l-1.8 4.2-3.6 6.8 3.5 4.6-1.3 7.6-10.3 13.3-6.5-1.8 19.4 64.1 32.9-4.6-2-100.5z"/><path id="pree" opacity=".7" d="M230.1 141.2l2 100.5 36.8-5.2 25.4-5.5-6.8-41.3-.5-3.2-.8-4.7-.4-2.3-2.7-16.6-.3-2-.9-5.2-.2-1.5-3.8-23z"/><path id="prer" opacity=".7" d="M342.4 136.6l-22.9-14.1-26.4 5.5-15.2 3.2 16.4 99.8 71.3-15.4-19.6-38.3-2.6-29.3z"/><path id="preg" opacity=".7" d="M356.3 114.8l-13.9 21.8 3.6 40.7 19.6 38.3 58.5-12.6-12.2-52.9-.8-3.4-.8-3.8-.9-3.8-1-4.1-.5-2.5-6.3-27.1z"/><path id="pree2" opacity=".7" d="M467.2 168.9l-21.1 6.2-5.7-5.5 9.3-5-1.8-9.2-6.4-6.4-.5-5.2-8.3-5.6-.3-5.9 9.8.4.8-5-4.5-2.9 1.8-7-5-4 1.5-15.7-35.2 7.3 22.5 97.6 56.2-12.2z"/><path id="preisland" opacity=".7" d="M472.1 87.9l-.6-7.1 23.5-9.2-2.8 11.7L481.6 97l-1.5 16.7 1.6 12.3-6.6 18.1-7.9 7-5.3-16.9 1.6-19.8 5.8-15.2z"/><path id="prer2" opacity=".7" d="M291 128.5l-16.6-25.6-3.2-4.9-19.1-29.5-6 23.6-14.3 1.1-7.9-8.9-4.5 1.9-2.2 20.8-17.4 40.5z"/><path id="prev2" opacity=".7" d="M316 123.3l6.6-104.5-35.7-13.9-.3 18.4-5.5 12.2-4.6 8.5-9.4 8.5-3.8 10-10.2 2-1 4 38.9 60z"/><path id="prea" opacity=".7" d="M319.5 122.5l22.9 14.1 13.9-21.8 7.6-1.6 6.5-1.4 31.2-6.5 35.1-7.3.1-1.4-3.2-4.4-11.6-1.5-7.8-7.6-17.7-3.4-10.7-3.5-14.2-5.3-7.1-4.6-1.8-8.7 1.8-6.3 4.6-4.8 3.2-13.4-4.7-6.5L338 15.9l1.7-9.6-14.7-5s.1 18.6-2.4 17.4L316 123.3l3.5-.8z"/></g><g id="End"><path id="posttip" d="M1 269.2l30.8-3.3 12.6-1.5c-6.7-4.8-11.6-10.5-14.2-17.3v5L1 269.2z"/><path id="postc" d="M87.4 208.5l-10.5-12-36.4 39.6-5.2 7.4v2.1c1.1 2.8 2.9 5.7 4.9 8.6 2.7 3.6 5.8 6.3 9.3 8.7l16.3-1.9 25.3-.8 7.3-5.4-4-17.1-16.7-4 13.1-11.3-3.4-13.9z"/><path id="posto" d="M124.5 211c-2.8-.9-5.3-1.3-7.6-1.2l-8.5 3.8-2.5-.6c-4.6 2.6-7.4 6.6-9.5 11.3l5.7 24.3c1.7 1.5 3.5 2.7 5.2 3.6l17.8 1c7.3-3.2 11.4-7.8 13.3-13.4l-3.9-22.1c-3.3-3.1-6.5-5.9-10-6.7z"/><path id="postn" d="M177.3 182.1l-9.9 7.3-4.4-.9 5.9 18.3-10.5-19.1-6.4 15.5-13.4 5-.6-.3 1.6 9.7 5.8 32.3 14.7-2-4.4-20.8 10.1 19.9 28.8-4-16.1-60.6z"/><path id="postv" d="M208.8 147.9l.3 10.8 1.7 57.7-12.6-47.6-.1.7-9.7 12.6-5-1.3 16.1 60.6L230 237l-2.6-92.9z"/><path id="poste" d="M232.3 142.5l2.7 92.9 36.5-5.2L291 226l-6.1-38.5-29.6 6.1-.3-4.6 29.1-6-3.1-19.8-27.6 5.6-.3-4.6 27.2-5.5-4-25.2z"/><path id="postr" d="M342.5 148.7c-5.8-18.2-16.8-21.7-28.6-22.9l-5.5.5-27.1 5.5 14.7 92.6 61.2-13.2-23.4-34.5c6.1-5.3 9.1-12.6 9.6-21.6l-.9-6.4z"/><path id="postg" d="M372.1 114c-16.8 5.2-28 15.8-25.3 39.5l6.2 26.4c6.5 19.8 20.2 26.7 38.7 24.5l28.5-6.2-10.9-49.1-18.5 4.4 3.8 21.5-8 1.5-5.5-28.7 26.5-5.9-7.4-33.6-28.1 5.7z"/><path id="poste2" d="M472.6 162.9l-19.9 5.8-5.5-5.1 8.8-4.8-1.7-8.7-6.1-6.1-.4-4.9-7.8-5.3-.4-5.6 9.3.4.8-4.8-4.2-2.7 1.6-6.7-4.7-3.8 1.1-11.8-38.3 7.8 19.9 90 60-13z"/><path id="postisland" d="M477.2 86.1l-.5-6.7 22.3-8.8-2.7 11.1-10.1 13-1.4 15.8 1.6 11.7-6.3 17.2-7.5 6.6-5-16 1.5-18.8 5.5-14.4z"/><path id="postr2" d="M287.6 126.4L264.1 109c1.8-3.1 3-6.4 3-10.2-1.2-11.7-7.2-16.2-15.1-18.2l-2 7.8-13.6 1-7-8.4-4.4 1.8V139l62.6-12.6z"/><path id="postv2" d="M313 120.5l14.4-103.2-25.1-9.7-2.4 19.5-6.5 52.6-14.2-34.4-4.4 4-3.6 9.4-9.7 2-2.4 9.5 33 54.5z"/><path id="posta" d="M319.2 120.5c4.4.9 8.9 2.1 13.4 5.1 3.6 2.1 6.7 5.2 9.5 8.9 2.5-6.9 6.1-13 11.6-17.5l3.6-51.9 3.2-.4 9 45.6 42.2-8.6-4.5-8.3-2.6-4.9-2.4-4.4-6.1-11.3-4.4-1.5-6-2.2L380 67l-2.4-6.7-2.5-6.9-1.8-5.1 4.4-4.6.8-3.4-9.9-18.3-20.5-7.4 1.6-9.1-14-4.7s0 15.9-1.9 16.5L320 114.7l-.8 5.8z"/></g><path id="state" opacity=".7" d="M480.3 190.8l-211.5 45.7-136.1 19.2-24.3-1.4-9.4 7-26.7.8-30.3 3.6-32.5 3.5 30.8-18v-7.5l5.5-7.8L84.2 194l14.3 16.3 13.8 3.5 9.2-4.1 8.1-4.8 9.2 4.9 14.2-5.2 6.8-16.6 9.5 2 10.4-7.7 6.5 1.8 10.3-13.4 1.3-7.6-3.5-4.6 3.6-6.8 19.2-44.6 2.2-20.8 4.5-1.9 7.9 8.9 14.3-1.1 7-27.5 10.2-2 3.8-10 9.4-8.5 4.6-8.5 5.5-12.2.3-18.4L322.5 19c2.6 1 2.5-17.6 2.5-17.6l14.7 5L338 16l29.7 10.7 4.7 6.5-3.2 13.4-4.6 4.8-1.8 6.3 1.8 8.7 7.1 4.6 14.2 5.3 10.7 3.5 17.7 3.4 7.8 7.6 11.6 1.5 3.2 4.4-1.6 17.1 5 4-1.7 7 4.5 2.9-.8 5-9.8-.3.3 5.9 8.3 5.6.4 5.1 6.4 6.5 1.8 9.2-9.3 5 5.7 5.4 21.1-6.1 13.1 21.8zm-8.2-102.9l-.5-7.1 23.5-9.3-2.8 11.7L481.6 97l-1.5 16.7 1.7 12.3-6.6 18.1-7.9 7-5.3-16.9 1.6-19.8 5.8-15.2 2.7-11.3z"/></svg>