<?xml version="1.0" encoding="utf-8"?>
<!-- Generator: Adobe Illustrator 17.0.2, SVG Export Plug-In . SVG Version: 6.00 Build 0)  -->
<!DOCTYPE svg PUBLIC "-//W3C//DTD SVG 1.1//EN" "http://www.w3.org/Graphics/SVG/1.1/DTD/svg11.dtd">
<svg version="1.1" id="Layer_1" xmlns="http://www.w3.org/2000/svg" xmlns:xlink="http://www.w3.org/1999/xlink" x="0px" y="0px"
	 width="43px" height="31px" viewBox="0 0 43 31" enable-background="new 0 0 43 31" xml:space="preserve">
<path fill="#333333" d="M7.38,22L0,14.482L7.38,7L10,9.635l-4.793,4.848L10,19.33L7.38,22z M33,19.33l4.793-4.848L33,9.635L35.62,7
	L43,14.482L35.62,22L33,19.33z M24.688,2.537L26.906,0l2.934,2.751l-2.075,2.07c1.002,1.215,1.574,2.715,1.574,4.357
	c0,4.357-3.577,7.25-7.977,7.25c-1.037,0-1.931-0.107-2.79-0.322c-1.538,1.285-1.681,2.857,0.68,2.857
	c1.646,0,2.719-0.68,5.115-0.68c9.123,0,9.051,12.715-3.004,12.715c-9.05,0-10.91-5.857-7.834-9.893
	c-1.287-2-0.751-5.072,1.646-6.928c-1.182-1.25-1.824-2.965-1.824-5c0-4.357,3.611-7.286,8.012-7.286
	C22.543,1.893,23.687,2.107,24.688,2.537z M16.855,23.143c-0.966,1.822,0.215,3.607,4.507,3.607c6.295,0,6.117-4.357,2.826-4.357
	c-1.93,0-3.863,0.822-6.403,0.822C17.463,23.215,17.141,23.179,16.855,23.143z M21.362,12.322c1.967,0,3.254-1.107,3.254-3.143
	c0-2.071-1.287-3.25-3.254-3.25c-2.003,0-3.291,1.214-3.291,3.25C18.071,11.25,19.466,12.322,21.362,12.322z"/>
</svg>
