<svg xmlns="http://www.w3.org/2000/svg" width="28" height="28" viewBox="0 0 28 28"><g fill="#fff"><path opacity=".7" d="M26 28H2c-1.1 0-2-.9-2-2v-.5c0-.8.7-1.5 1.5-1.5h25c.8 0 1.5.7 1.5 1.5v.5c0 1.1-.9 2-2 2zM26 16h-1l-2.8 1.7c-1 .6-2.2.7-3.3.3l-5.8-2H2c-1.1 0-2 .9-2 2s.9 2 2 2h24c1.1 0 2-.9 2-2s-.9-2-2-2zM14 0C6.3 0 0 4.5 0 10c0 1.1.9 2 2 2h24c1.1 0 2-.9 2-2 0-5.5-6.3-10-14-10zM8 6c-.2.8-.9 1.3-1.4 1.1-.5-.2-.7-1-.4-1.8.2-.8.9-1.3 1.4-1.1.5.2.7 1 .4 1.8zm3.6 1.7c-.1.9-.6 1.5-1.2 1.4s-.9-.8-.8-1.7.6-1.5 1.2-1.4c.5.1.9.8.8 1.7zM14 6.3c-.5 0-1-.7-1-1.6s.4-1.6 1-1.6 1 .7 1 1.6-.5 1.6-1 1.6zm3.6 2.8c-.5.1-1.1-.6-1.2-1.4s.2-1.6.8-1.7c.5-.1 1.1.6 1.2 1.4s-.3 1.6-.8 1.7zm3.8-2c-.5.2-1.2-.3-1.4-1.1-.3-.8-.1-1.6.4-1.8.5-.2 1.2.3 1.5 1.1.2.8 0 1.6-.5 1.8z"/></g></svg>