<svg xmlns="http://www.w3.org/2000/svg" width="21.6" height="15.5" viewBox="0 0 21.6 15.5"><g opacity=".7" fill="#fff"><path d="M3.7 11.2L0 7.5l3.7-3.7L5 5 2.6 7.5 5 9.9l-1.3 1.3zM16.6 9.9L19 7.5 16.6 5l1.3-1.3 3.7 3.7-3.7 3.8-1.3-1.3zM12.5 1.3L13.6 0l1.5 1.4-1 1c.5.6.8 1.4.8 2.2 0 2.2-1.8 3.6-4 3.6-.5 0-1-.1-1.4-.2-.9.7-.9 1.5.3 1.5.8 0 1.4-.3 2.6-.3 4.6 0 4.5 6.4-1.5 6.4-4.5 0-5.5-2.9-3.9-4.9-.7-1.1-.5-2.7.7-3.6-.6-.6-.9-1.5-.9-2.5 0-2.2 1.8-3.6 4-3.6.6-.1 1.2.1 1.7.3zM8.6 11.6c-.5.9.1 1.8 2.3 1.8 3.1 0 3.1-2.2 1.4-2.2-1 0-1.9.4-3.2.4h-.5zm2.2-5.4c1 0 1.6-.6 1.6-1.6S11.8 3 10.8 3s-1.6.6-1.6 1.6.7 1.6 1.6 1.6z"/></g></svg>