<svg xmlns="http://www.w3.org/2000/svg" viewBox="0 0 300 500" enable-background="new 0 0 300 500"><path id="postx" opacity=".7" d="M295.3 431.3l-1.9-3.2-2-11-5.9-10.7.2-5.8-2.8-4-23.8 11.4-6.2-57.8-26.7-39.7-18.3 49.7 8.3 62.1-37.4 17-7.6 20.4.7 26 1 3.6 9.1 1.4 46.9-28 5.3 35.3 28.5 2 7.9-1.1-1.3-8.2h-.7l-2.2-3.7 1.6-3.5-.9-6.8-1.1-7.2-1.1-6.8-1.5-9.8 5.4-2.7 8.3-4.1 5.5-2.8 5.3-3 7.7-4.2 1.5-3z"/><path id="prex" opacity=".7" d="M289.8 428.6l-1.9-3.1-2-11.2-6-10.8.2-5.8-4.6-6.8-9.6-14.5-15.3-23.2-27.7-42-16.6 45.5-11 30-15.7 43.1-14.6 40v13.7l1.1 3.7 20.9 3.1 23.5 3.3L228 496l28.9 2 8-1 3-4.2 1.6-4-6.6-.2-2.3-3.7 1.6-3.5-.1-12.8 4.6-2.8 5.6-5.3.9-10.3 3.4-7.2 4-4.4 6.8-3.6 2.7-1.5 1.6-3.1z"/><path id="posta" opacity=".7" d="M222 306.4l-41.3-61-114.6 90 .2 1.1 3.4 2v5l-1.7 4-3.7 14.6-1 4 5 5.7 8.7 1 9.3 3.6 8 4.4h6l4.5 4.8 17-14.6 41.7-35.9-17.8 41.2-13.7 31.6 2.9 4.1 1.3 6.7-3 1.3.7 2 6.6 1.7 5.7.3 6 9.7 7.9 8.6 1.7 4.7.7 1.1 2.8 4.6 1.8 2.9z"/><path id="prea" opacity=".7" d="M222.9 311.2l-45.2-66.9-115.4 90.1.4 2.7 3.3 2v5.1l-1.6 4-3.7 14.8-.9 4 5 5.7 8.7 1 9.4 3.8L91 382h6.1l6 6.3 5.4 10 2.3 4.7 8.1 4.3L129 409l3 4.4 1.3 6.7-3 1.3.7 2 6.7 1.7 5.7.3 6 9.8 8.1 8.7 1.7 4.7 5.2 8.7.6 6.8v5.7z"/><path id="postm" opacity=".7" d="M155.9 210.8l-26.1-40.2 3.7-14.8 14-53.4 16.7-64.7-25.4-6.9-27.8-7-25.9-8.5-15.5-4.2L46 5 31.5 0l-3.3 9.7-.3 15.3-10.6 24.3-6.3 5.3-.7 2.4-3.7 1.7-3 8.6L2 73.9l5.7 8.6 3.3 8.6 2.3 7.3-.7 13.3-3.6 6.5-.6 5.3 62.6 6.7-56.6 24.1.6.9s3.9 8.2 4.7 10 2.7 8.3 2.7 8.3l-.7 6.7-.7 1v4.3l11.6 13-1 5-1.3 4.7-1 3.1 45-4.8L36.2 240l1.4 1.9 5.7 1 2 5.7-2.3 7.3-4.3 3.3h-2.3l-1.7 8 1 6 6.7 9 3.3 11 3 9.6 2.7 6.3 7 12 3 5.3.8 4.8 114.6-89.9-20.9-30.5z"/><path id="prem" opacity=".7" d="M157.4 214.4L131 173.8l3.7-15 14.2-53.9 16.9-65.3-25.8-7-28-7.1L85.9 17l-15.7-4.3-23.7-6.2-14.6-5-3.3 9.8-.3 15.5-10.8 24.5-6.4 5.4-.7 2.3-3.7 1.7-3 8.7L2 76.1l5.7 8.7 3.4 8.7 2.4 7.4-.7 13.4-3.7 6.4-1.3 12.1s-1.9 6.2-2 7.7 3.7 8.1 3.7 8.1l5.7 9.4 4.7 10.1 2.7 8.4-.7 6.7-.7 1v4.4L33 201.7l-1 5-1.3 4.7-1.3 4 .3 17.1 4.4 7.7 4 5.4 5.7 1 2 5.7-2.4 7.3-4.4 3.2h-2.4l-1.7 8.2 1 6.1 6.7 9.1 3.4 11.1 3 9.7 2.7 6.4 7.1 12.1 3 5.4.6 3.4 115.4-90.1-20.4-29.8z"/><path id="state" opacity=".7" d="M289.8 428.6l-1.9-3.1-2-11.2-6-10.8.2-5.8-4.6-6.8-9.6-14.5-15.3-23.2-27.7-42-45-66.6-.1-.4-20.4-29.8-26.4-40.6 3.7-15 14.2-53.9 16.9-65.3-25.8-7-28-7.1L85.9 17l-15.7-4.3-23.7-6.2-14.6-5-3.3 9.8-.3 15.5-10.8 24.5-6.4 5.4-.7 2.3-3.7 1.7-3 8.7L2 76.1l5.7 8.7 3.4 8.7 2.4 7.4-.7 13.4-3.7 6.4-1.3 12.1s-1.9 6.2-2 7.7c-.1 1.5 3.7 8.1 3.7 8.1l5.7 9.4 4.7 10.1 2.7 8.4-.7 6.7-.7 1v4.4L33 201.7l-1 5-1.3 4.7-1.3 4 .3 17.1 4.4 7.7 4 5.4 5.7 1 2 5.7-2.4 7.3-4.4 3.2h-2.4l-1.7 8.2 1 6.1 6.7 9.1 3.4 11.1 3 9.7 2.7 6.4 7.1 12.1 3 5.4.6 3.4-.1.1.4 2.7 3.3 2v5.1l-1.6 4-3.7 14.8-.9 4 5 5.7 8.7 1 9.4 3.8L91 382h6.1l6 6.3 5.4 10 2.3 4.7 8.1 4.3L129 409l3 4.4 1.3 6.7-3 1.3.7 2 6.7 1.7 5.7.3 6 9.8 8.1 8.7 1.7 4.7 5.2 8.7.6 6.8v19.4l1.1 3.7 20.9 3.1 23.5 3.3L228 496l28.9 2 8-1 3-4.2 1.6-4-6.6-.2-2.3-3.7 1.6-3.5-.1-12.8 4.6-2.8 5.6-5.3.9-10.3 3.4-7.2 4-4.4 6.8-3.6 2.7-1.5 1.6-3.1-1.9-1.8z"/></svg>