<svg xmlns="http://www.w3.org/2000/svg" width="140" height="60.9" viewBox="0 0 140 60.9"><path id="NorthCarolina_1_" opacity=".7" fill="#fff" d="M128.8 0l1.5 4.2 3.2 5.8 2.2 2.2.6 2-2.2.1.7.6-.3 3.8-2.3 1.2-.6 1.9-1.2 2.6-3.4 1.5-2.2-.3-1.3-.1-1.5-1.2.3 1.2v1.1h1.8l.7.9-1.8 5.4h3.8l.6 1.6 2-2 1.2-.4-1.8 3.4L126 40h-1l-1-.6-2.5.5-4.7 2.2L111 47l-3.1 4.2-1.8 5.8-.4 2.2-4.2.4-4.9 1.2-9-7.4-11.4-6.9-2.6-.7-11.4 1.3-3.9.7L57 45l-2.7-1.9-14.9.4-6.6.7-8.2 4.1-5.5 2.3-1.5.3-5.3.9-6.3.7-6 .5.5-3.7L2.1 48l2.5-.6.6-3.4L9 41.5l3.5-1.3 3.8-3.2 3.9-1.9.6-2.8 3.5-3.5.6-.1s0 1 .7 1 1.8.3 1.8.3l2-3.2 1.9-.6 2 .3 1.5-3.2 2.5-2.3.3-1.9v-3.6l4.2.7 6.5-1.2 14.3-1.8L78 11l18-3.6 17.8-3.8 10.3-2.5 4.7-1.1zm3.5 29.8l2.3-2.3 2.8-2.3 1.4-.6.1-1.8-.6-5.5-1.3-2.1-.6-1.7.7-.2 2.5 5 .4 4-.1 3.1-3.1 1.4-2.6 2.2-1 1.1-.9-.3z"/></svg>