<svg xmlns="http://www.w3.org/2000/svg" width="133" height="73.4" viewBox="0 0 133 73.4"><path id="Virginia_1_" opacity=".7" fill="#fff" d="M126.7 23.7l-.1-1.9 6.4-2.5-.8 3.2-2.9 3.8-.4 4.6.5 3.4-1.8 5-2.2 1.9-1.5-4.6.4-5.4 1.6-4.2.8-3.3zm2.3 28.2L71 64.4l-37.3 5.3-6.7-.4-2.6 1.9-7.3.2-8.3 1-8.8 1 8.4-4.9v-2.1l1.5-2.1 10.5-11.5 3.9 4.5 3.8 1 2.5-1.1 2.2-1.3 2.5 1.3 3.9-1.4 1.9-4.5 2.6.5 2.8-2.1 1.8.5 2.8-3.7.3-2.1-1-1.3 1-1.9L56.7 29l.6-5.7 1.2-.5 2.2 2.4 3.9-.3 1.9-7.5 2.8-.6 1-2.7 2.6-2.3 1.3-2.3L75.9 6l.1-5 9.8 3.8c.6.3.6-4.8.6-4.8l4 1.4L90 4l8.1 2.9 1.3 1.8-.9 3.7-1.3 1.3-.5 1.7.5 2.4 2 1.3 3.9 1.4 2.9 1 4.8.9 2.1 2.1 3.2.4.9 1.2-.4 4.7 1.4 1.1-.5 1.9 1.2.8-.2 1.4-2.7-.1.1 1.6 2.3 1.5.1 1.4 1.8 1.8.5 2.5-2.5 1.4 1.6 1.5 5.8-1.7 3.5 6z"/></svg>