<?xml version="1.0" encoding="utf-8"?>
<!-- Generator: Adobe Illustrator 18.0.0, SVG Export Plug-In . SVG Version: 6.00 Build 0)  -->
<!DOCTYPE svg PUBLIC "-//W3C//DTD SVG 1.1//EN" "http://www.w3.org/Graphics/SVG/1.1/DTD/svg11.dtd">
<svg version="1.1" id="Layer_1" xmlns="http://www.w3.org/2000/svg" xmlns:xlink="http://www.w3.org/1999/xlink" x="0px" y="0px"
	 viewBox="0 0 500 270" enable-background="new 0 0 500 270" xml:space="preserve">
<g id="Layer_2">
	<polygon id="prea" opacity="0.7" points="47.5,170.9 34.7,175.8 20.9,185 18.8,197.6 9.7,199.7 4,204.7 2.3,218.3 24.6,216.6 36.1,215.3
		38.8,214.9 47.4,213.9 66.6,210.7 71.8,209.6 76.6,207.5 55.5,163.9 	"/>
	<polygon id="prel" opacity="0.7" points="88.2,168.1 81.3,137.8 77.8,141.5 75.6,151.8 61.3,158.9 55.5,163.9 76.6,207.5 92.1,200.9 121.7,185.6
		135.3,184.1 131.3,156.6 	"/>
	<path id="prel2" opacity="0.7" d="M131.3,156.6l2.9-11.6l-19.5-25.9l-5.7,1.8l-7.4,12c0,0-3.7-1.1-6.4-1.1c-2.7,0-2.7-3.8-2.7-3.8l-2.2,0.5
		l-9.2,9.4l6.9,30.3L131.3,156.6z"/>
	<polygon id="pret" opacity="0.7" points="204.3,100.8 201,73.9 178.2,76.7 154.7,81.1 139.7,78.6 139.7,92 138.2,99.1 128.7,107.8 123.4,119.7
		115.9,118.6 114.7,119.1 134.2,144.9 131.3,156.6 135.3,184.1 145.7,182.9 182.5,181.8 174.4,108.3 	"/>
	<polygon id="preh" opacity="0.7" points="230.2,70.3 201,73.9 203.4,94 204.3,100.8 200.8,101.7 195.7,102.9 174.4,108.3 182.5,181.8
		199.8,181.3 200.8,182 214.1,179 219.8,177.7 227.6,175.9 253.7,170 235.6,69.4 	"/>
	<polygon id="prei" opacity="0.7" points="235.6,69.4 253.7,170 284.4,163 265.8,64.7 	"/>
	<polygon id="pren" opacity="0.7" points="346.3,58.5 350.3,48.4 321.8,54.2 313.7,55.9 308.7,56.9 286.4,61.6 265.8,64.7 284.4,163 308.3,157.6
		313.7,156.3 321.8,154.5 377.9,141.7 359.3,126.3 	"/>
	<polygon id="preg" opacity="0.7" points="416.6,34.1 351.8,48 350.3,48.4 346.3,58.5 359.3,126.3 377.9,141.7 441.5,127.3 431,78.5 430.1,73.9
		429.1,69.4 427.8,63.1 426.7,58.1 426,55 421.3,32.8 	"/>
	<polygon id="pres" opacity="0.7" points="498.3,74.1 496.1,66.4 488.2,58.3 483.8,50.1 476.5,36.5 470.9,20.7 454,24.7 421.3,32.8 423.1,41.3
		431.6,81 433.4,89.8 435.2,97.8 441.5,127.3 456.8,123.8 456.9,123.7 454.2,119.5 447.4,119.5 447.4,115.9 446.6,111.6 452,115.9
		456.8,116.5 464.8,117.6 477,112.2 481.3,102.3 483.4,95.3 491.9,90.9 492.9,76.7 490.3,74.6 	"/>
	<polygon id="preo" opacity="0.7" points="200.8,182 209.6,188.4 214.9,199.3 229,196.7 270.3,191.8 279.9,194.6 293.4,202.8 261.3,168.2
		255.3,169.6 	"/>
	<polygon id="prep" opacity="0.7" points="261.3,168.2 293.4,202.8 321.3,220.2 354,247.8 371.9,243.3 387.3,241.6 388.9,233.4 395.3,211.7
		398.7,206.8 364,144.7 347.3,148.5 	"/>
	<polygon id="pree" opacity="0.7" points="364,144.7 398.7,206.8 406.4,195.9 427.7,177.9 433.4,175.2 430.9,170.3 429.7,168.2 428.4,165.7
		427,163 421.6,152.8 420.2,150.3 418.7,147.5 417.9,146 411.5,134 	"/>
	<polygon id="pren2" opacity="0.7" points="473.9,142.6 466.4,150.1 464.3,144.5 450.5,144.5 456.8,123.6 447.8,125.7 441.5,127.1 437,128.1
		411.5,134 433.4,175.2 444.7,169.8 448.8,168.9 453.7,167.8 457.4,169.5 461.6,169.5 471.7,153 478.1,141 	"/>
</g>
<g id="Layer_4">
	<polygon id="posta" points="42.6,168.6 29.6,173.4 15.4,182.7 13.3,195.2 10.5,195.9 7.3,203.6 2.4,215.4 27.1,213.4 31.1,197.7
		39.3,195.3 47.9,210.7 58.7,208.9 67.6,207.2 72.9,204.9 43.2,168.1 	"/>
	<polygon id="postl" points="87.3,172.4 80.3,143.5 78.2,134.7 73.6,139.2 71.4,149.6 65.9,152.2 77.2,203.2 94,195.6 118.6,183.3
		131.3,181.9 125,162.5 	"/>
	<path id="postl2" d="M123.3,156.6l-2-9.5l-2.2-10.3l-19.3,5.6l-2.8-12.1c0,0-2.8-0.8-5.4-0.8c-2.7,0-2.7-3.8-2.7-3.8l-2.2,0.5
		l-2.8,2.8l8.2,35.2L123.3,156.6z"/>
	<polygon id="postt" points="199.3,99.1 194.8,72.3 176.3,74.7 152.3,79 137.1,76.6 137.1,89.8 135.5,96.9 125.7,105.6 122.1,113.6
		135.3,111.3 145.5,109.5 149.2,142.7 151.7,166.6 153.3,180.7 160.7,180.7 179.8,179.7 170.6,105 	"/>
	<polygon id="posth" points="229.5,68.1 203.7,71.3 207,89.1 213.4,123.4 205.5,125.3 200.9,104.7 178.1,109.8 186.9,179.3
		198.4,179 214.1,175.5 209.5,144.8 217.8,142.8 222.8,173.6 251.1,167.4 232.5,67.7 	"/>
	<polygon id="posti" points="238,66.8 257.1,166.1 281.5,160.8 262.4,63.1 	"/>
	<polygon id="postn" points="343.1,64.7 339.8,48.8 315.5,53.7 324.7,93.3 304.2,55.9 284.4,59.8 268.2,62.2 286.8,159.6
		311.9,154.1 304.6,123.3 321.6,152 359.3,143.7 355.8,126.6 	"/>
	<path id="postg" d="M411.5,33.9L390,38.4l-10.7,2.2c-20.9,5-29.8,20.4-26.6,40.9l5.7,26.9c5.5,21.7,22.5,29.2,41.1,26.6l37.7-8.3
		l-11.8-54.4l-28.7,6.6l7.2,24.8l-12.2,2.4l-6.5-34.1l38.3-8.4l-6.7-30.8L411.5,33.9z"/>
	<path id="posts" d="M493.4,74l-2-6.2l-2.6-7.4c-4.6-7.1-11.8-9.1-20.4-8.7l16.5-4.2l-9.2-28.8L458,22.9l-19.2,4.7
		c-8.6,2.8-12.9,8.7-11.7,18.6l8.2,36.7c3.4,9.7,11.8,12.3,22.8,11.6l-19.3,4.5l5.8,25.9l12.3-3.4l4.1-1.1l-2.3-3.6h-6.9v-3.2
		l-0.9-4.3l5.5,4.3l2.7,0.3l10.5,1.4l12.4-5.5l3.4-7.8l2.8-9.2l8.9-4.1l0.2-2.3l-2.3-7.2L493.4,74z"/>
	<path id="posto" d="M227.1,177.7c-6.3,1.8-8.2,6.5-6.1,13.4l0,0c1.3,4.7,5.4,7.1,12,7.2l28.4-2.6l5.9-0.5c6.2-2.2,8.1-5.9,4.7-11.6
		l-6.1-7c-4.1-4.2-8.6-5.3-13.4-4.4L227.1,177.7z"/>
	<path id="postp" d="M264.7,169.6l27.8,24.7l25.8,22.8l37.8,33.4l18.4-4.5l15.8-1.6L352,205.9l19.9-5.5c9.2-4,13-10.6,9.1-21.1
		l-10.2-16.3c-10.4-11.5-19.6-11.9-28.4-10.3L264.7,169.6z"/>
	<polygon id="poste" points="368.4,146.9 403.4,207.5 409.7,198.7 431.5,180.9 433.4,179.9 428.5,170.7 409.2,177.6 407.6,173.9
		426.7,167.3 419.8,154.4 400.9,161.1 399.3,157.5 418,151 410.9,137.6 	"/>
	<polygon id="postn2" points="467.1,147.7 463.6,146 459,143.9 459.5,132.7 461.4,126.6 446.6,129.7 452.6,148.3 436.5,132
		414.7,136.7 437.2,178.1 450.6,171.9 442.3,158.1 458.1,170.5 461.9,172.1 466.3,172.1 473.6,160.5 469.2,152 	"/>
</g>
<g id="Layer_3">
	<path id="state" opacity="0.7" d="M470.9,20.7l5.6,15.8l11.7,21.8l7.9,8.2l2.2,7.6l-7.9,0.5l2.7,2.2l-1,14.1l-8.5,4.3l-2.2,7.1l-4.2,9.8
		l-12.2,5.4l-7.9-1.1l-4.7-0.5l-5.3-4.3l1,4.3v3.3h6.4l2.7,4.3l-6.4,21.2h13.8l2.2,5.4l7.4-7.6l4.2-1.6l-6.4,12l-10.1,16.3h-4.2
		l-3.7-1.6l-9.1,2.2l-17,8.2l-21.2,17.9l-11.2,15.9l-6.4,21.7l-1.6,8.2l-15.4,1.6l-17.9,4.5l-32.7-27.6l-41.4-25.6l-9.6-2.8
		l-41.4,4.9l-14.1,2.5l-5.3-10.9l-9.7-7.2l-54.1,1.6l-23.9,2.8l-29.7,15.3l-20.2,8.7l-5.3,1.1l-19.1,3.2l-22.8,2.8l-22.3,1.6
		l1.6-13.6l5.9-4.9l9.1-2.2l2.2-12.5l13.8-9.2l12.8-4.9l13.8-12l14.3-7.1l2.2-10.3l12.8-13l2.2-0.5c0,0,0,3.8,2.7,3.8
		c2.7,0,6.4,1.1,6.4,1.1l7.4-12l6.9-2.2l7.4,1.1l5.3-12l9.6-8.7l1.6-7.1V78.6l14.8,2.4l23.4-4.3l52-6.6l56.3-8.7L351.9,48L416.7,34
		l37.2-9.3L470.9,20.7z"/>
</g>
</svg>
