<?xml version="1.0" encoding="utf-8"?>
<!-- Generator: Adobe Illustrator 18.0.0, SVG Export Plug-In . SVG Version: 6.00 Build 0)  -->
<!DOCTYPE svg PUBLIC "-//W3C//DTD SVG 1.1//EN" "http://www.w3.org/Graphics/SVG/1.1/DTD/svg11.dtd">
<svg version="1.1" xmlns="http://www.w3.org/2000/svg" xmlns:xlink="http://www.w3.org/1999/xlink" x="0px" y="0px"
	 viewBox="0 0 580 270" enable-background="new 0 0 580 270" xml:space="preserve">
<g id="Layer_2">
	<polygon id="prea" points="55.1,176.6 40.3,182.3 24.3,193 21.8,207.6 11.3,210.1 4.6,215.8 2.7,231.6 28.5,229.7 41.9,228.1
		45,227.7 55,226.5 77.2,222.8 83.3,221.5 88.9,219.1 64.4,168.5 	"/>
	<polygon id="prel" points="102.3,173.4 94.3,138.3 90.2,142.5 87.7,154.5 71.1,162.7 64.4,168.5 88.9,219.1 106.8,211.4
		141.2,193.7 157,191.9 152.3,160 	"/>
	<path id="prel2" d="M152.3,160l3.4-13.5l-22.6-30l-6.6,2.1l-8.6,13.9c0,0-4.3-1.3-7.4-1.3c-3.1,0-3.1-4.4-3.1-4.4l-2.5,0.6
		l-10.7,10.9l8,35.1L152.3,160z"/>
	<polygon id="pret" points="237,95.3 233.2,64.1 206.7,67.4 179.4,72.5 162,69.6 162,85.1 160.3,93.3 149.3,103.4 143.1,117.3
		134.5,116 133.1,116.5 155.7,146.5 152.3,160 157,191.9 169,190.6 211.7,189.3 202.3,104 	"/>
	<polygon id="preh" points="267,59.9 233.2,64.1 236,87.4 237,95.3 232.9,96.4 227,97.8 202.3,104 211.7,189.3 231.8,188.7
		232.9,189.5 248.3,186 255,184.5 264,182.4 294.3,175.6 273.3,58.9 	"/>
	<polygon id="prei" points="273.3,58.9 294.3,175.6 329.9,167.5 308.3,53.5 	"/>
	<polygon id="pren" points="401.7,46.3 406.3,34.5 373.3,41.3 363.9,43.2 358.1,44.4 332.2,49.8 308.3,53.5 329.9,167.5
		357.6,161.2 363.9,159.7 373.3,157.6 438.4,142.8 416.8,124.9 	"/>
	<polygon id="preg" points="483.3,17.9 408.1,34.1 406.3,34.5 401.7,46.3 416.8,124.9 438.4,142.8 512.1,126.1 500,69.5 498.9,64.1
		497.8,58.9 496.2,51.6 495,45.8 494.2,42.2 488.7,16.5 	"/>
	<polygon id="pres" points="578,64.3 575.5,55.4 566.3,46 561.2,36.5 552.7,20.7 546.2,2.4 526.6,7 488.7,16.5 490.8,26.3
		500.6,72.4 502.8,82.6 504.8,91.8 512.1,126.1 529.9,122 530,121.9 526.9,117 519,117 519,112.9 518,107.8 524.3,112.9
		529.9,113.5 539.2,114.8 553.3,108.5 558.3,97.1 560.8,88.9 570.6,83.8 571.8,67.4 568.8,64.9 	"/>
	<polygon id="preo" points="232.9,189.5 243.1,196.9 249.3,209.6 265.6,206.6 313.6,200.9 324.7,204.1 340.3,213.7 303.1,173.5
		296.2,175.1 	"/>
	<polygon id="prep" points="303.1,173.5 340.3,213.7 372.7,233.8 410.6,265.8 431.4,260.6 449.3,258.7 451.1,249.2 458.5,224
		462.5,218.3 422.2,146.3 402.9,150.7 	"/>
	<polygon id="pree" points="422.2,146.3 462.5,218.3 471.4,205.7 496.1,184.8 502.8,181.6 499.9,176 498.5,173.5 496.9,170.6
		495.3,167.5 489,155.7 487.4,152.7 485.7,149.5 484.8,147.8 477.3,133.8 	"/>
	<polygon id="pren2" points="549.7,143.8 541,152.5 538.6,146 522.6,146 529.9,121.8 519.4,124.2 512.1,125.8 506.9,127
		477.3,133.8 502.8,181.6 515.8,175.4 520.6,174.3 526.3,173 530.6,175 535.5,175 547.2,155.9 554.6,142 	"/>
</g>
<g id="Layer_4">
	<polygon id="posta" points="49.4,174 34.3,179.6 17.9,190.3 15.4,204.8 12.2,205.6 8.5,214.6 2.8,228.3 31.4,225.9 36.1,207.7
		45.6,204.9 55.6,222.8 68.1,220.7 78.4,218.7 84.6,216.1 50.1,173.4 	"/>
	<polygon id="postl" points="101.3,178.4 93.2,144.9 90.7,134.6 85.4,139.9 82.8,151.9 76.5,155 89.5,214.1 109,205.3 137.6,191
		152.3,189.4 145,166.9 	"/>
	<path id="postl2" d="M143,160.1l-2.3-11l-2.6-12l-22.4,6.5l-3.3-14c0,0-3.2-0.9-6.3-0.9c-3.1,0-3.1-4.4-3.1-4.4l-2.5,0.6l-3.2,3.2
		l9.5,40.8L143,160.1z"/>
	<polygon id="postt" points="231.2,93.3 226,62.3 204.5,65 176.7,70 159,67.2 159,82.6 157.2,90.8 145.8,100.9 141.6,110.2
		157,107.5 168.8,105.4 173.1,143.9 176,171.6 177.8,188 186.4,188 208.6,186.9 197.9,100.2 	"/>
	<polygon id="posth" points="266.2,57.4 236.3,61.1 240.1,81.7 247.6,121.5 238.4,123.8 233,99.9 206.6,105.8 216.8,186.4
		230.2,186 248.4,182 243,146.4 252.7,144.1 258.5,179.8 291.3,172.6 269.7,56.9 	"/>
	<polygon id="posti" points="276.1,55.9 298.2,171.1 326.5,164.9 304.4,51.6 	"/>
	<polygon id="postn" points="398,53.5 394.2,35 366,40.7 376.6,86.6 352.9,43.3 329.9,47.8 311.1,50.6 332.7,163.5 361.8,157.2
		353.3,121.4 373.1,154.7 416.8,145.1 412.7,125.2 	"/>
	<path id="postg" d="M477.3,17.7l-24.9,5.2L440,25.5c-24.3,5.8-34.6,23.7-30.9,47.4l6.6,31.2c6.4,25.2,26.1,33.9,47.7,30.8l43.7-9.6
		l-13.7-63.1l-33.3,7.6l8.4,28.8l-14.2,2.8l-7.5-39.6l44.4-9.7l-7.8-35.7L477.3,17.7z"/>
	<path id="posts" d="M572.4,64.2l-2.3-7.2l-3-8.6c-5.3-8.2-13.7-10.6-23.7-10.1l19.1-4.9L551.8,0L531.3,5l-22.3,5.4
		C499,13.6,494,20.5,495.4,32l9.5,42.6c3.9,11.2,13.7,14.3,26.5,13.5L509,93.3l6.7,30.1l14.3-3.9l4.7-1.3L532,114h-8v-3.7l-1-5
		l6.4,5l3.1,0.3l12.2,1.6l14.4-6.4l4-9.1l3.3-10.7l10.3-4.8l0.2-2.7l-2.7-8.4L572.4,64.2z"/>
	<path id="posto" d="M263.4,184.5c-7.3,2.1-9.5,7.5-7.1,15.5l0,0c1.5,5.5,6.3,8.2,13.9,8.4l32.9-3l6.8-0.6c7.2-2.5,9.4-6.8,5.4-13.5
		l-7.1-8.1c-4.7-4.9-10-6.1-15.6-5.1L263.4,184.5z"/>
	<path id="postp" d="M307,175.1l32.3,28.6l29.9,26.5l43.9,38.7l21.3-5.2l18.3-1.9l-44.4-44.6l23.1-6.4c10.7-4.6,15.1-12.3,10.5-24.5
		l-11.8-18.9c-12.1-13.3-22.7-13.8-33-12L307,175.1z"/>
	<polygon id="poste" points="427.4,148.8 468,219.1 475.3,208.9 500.5,188.2 502.8,187.1 497.1,176.4 474.7,184.4 472.8,180.1
		495,172.5 487,157.5 465.1,165.3 463.2,161.1 484.9,153.6 476.7,138 	"/>
	<polygon id="postn2" points="541.8,149.7 537.8,147.8 532.4,145.3 533,132.3 535.2,125.2 518.1,128.9 525,150.4 506.3,131.5
		481.1,137 507.2,185 522.7,177.8 513.1,161.8 531.4,176.2 535.8,178 540.9,178 549.4,164.6 544.3,154.7 	"/>
</g>
<g id="Layer_3">
	<path id="state" d="M546.2,2.4l6.5,18.3L566.3,46l9.2,9.5l2.5,8.8
		l-9.2,0.6l3.1,2.5l-1.2,16.4l-9.9,5l-2.5,8.2l-4.9,11.4l-14.2,6.3l-9.2-1.3l-5.5-0.6l-6.2-5l1.2,5v3.8h7.4l3.1,5l-7.4,24.6h16
		l2.5,6.3l8.6-8.8l4.9-1.9l-7.4,13.9l-11.7,18.9h-4.9l-4.3-1.9l-10.5,2.5l-19.7,9.5l-24.6,20.8L458.5,224l-7.4,25.2l-1.8,9.5
		l-17.9,1.9l-20.8,5.2l-37.9-32l-48-29.7l-11.1-3.2l-48,5.7l-16.3,2.9l-6.2-12.6l-11.3-8.3l-62.8,1.9l-27.7,3.2l-34.5,17.7
		l-23.4,10.1l-6.2,1.3L55,226.5l-26.5,3.2l-25.9,1.9l1.9-15.8l6.8-5.7l10.5-2.5l2.5-14.5l16-10.7l14.8-5.7l16-13.9l16.6-8.2l2.5-12
		l14.8-15.1l2.5-0.6c0,0,0,4.4,3.1,4.4c3.1,0,7.4,1.3,7.4,1.3l8.6-13.9l8-2.5l8.6,1.3l6.2-13.9l11.1-10.1l1.8-8.2V69.6l17.2,2.8
		l27.2-5l60.3-7.6l65.3-10.1l75.9-15.6l75.2-16.3L526.6,7L546.2,2.4z"/>
</g>
</svg>
