<!-- Generator: Adobe Illustrator 18.0.0, SVG Export Plug-In  -->
<svg id="camap" version="1.1"
	 xmlns="http://www.w3.org/2000/svg" xmlns:xlink="http://www.w3.org/1999/xlink" xmlns:a="http://ns.adobe.com/AdobeSVGViewerExtensions/3.0/"
	 x="0px" y="0px" width="87.5px" height="150px" viewBox="0 0 87.5 150" enable-background="new 0 0 87.5 150" xml:space="preserve"
	>
<defs>
</defs>
<path id="California" opacity="0.7" fill="#FFFFFF" pointer-events="none" d="M77,150l2.4-0.3l0.9-1.3l0.5-1.2l-2-0.1l-0.7-1.1l0.5-1.1l0-3.9l1.4-0.8
	l1.7-1.6l0.3-3.1l1-2.2l1.2-1.3l2.1-1.1l0.8-0.5l0.5-0.9L87,129l-0.6-0.9l-0.6-3.4l-1.8-3.3l0.1-1.7l-1.4-2l-9.4-14.6L61,85
	L46.9,64.3L39,52l1.1-4.5l4.3-16.3l5.1-19.7l-7.8-2.1l-8.5-2.2l-7.9-2.6l-4.7-1.3l-7.2-1.9L9,0L8,3L7.9,7.6L4.7,15l-1.9,1.6
	l-0.2,0.7l-1.1,0.5l-0.9,2.6l-0.5,2l1.7,2.6l1,2.6l0.7,2.2l-0.2,4.1L2.1,36l-0.4,3.7L1.1,42l1.1,2.4L4,47.3l1.4,3l0.8,2.5l-0.3,2
	l-0.3,0.3v1.3l3.6,4L9,62l-0.4,1.4l-0.4,1.2l0.1,5.2l1.3,2.3l1.2,1.6l1.7,0.3l0.6,1.7l-0.7,2.3l-1.3,1.1h-0.7l-0.5,2.4l0.3,1.8
	l2,2.7l1,3.3l0.9,2.9l0.8,1.9l2.1,3.7l0.9,1.6l0.3,1.8l1,0.6v1.5l-0.5,1.2l-1.1,4.5l-0.3,1.2l1.5,1.7l2.6,0.3l2.8,1.2l2.4,1.4h1.8
	l1.8,1.9l1.6,3l0.7,1.4l2.4,1.3l3,0.5l0.9,1.3l0.4,2l-0.9,0.4l0.2,0.6l2,0.5l1.7,0.1l1.8,2.9l2.4,2.6l0.5,1.4l1.7,2.6l0.3,2v5.9
	l0.2,1.1l6.2,0.9l12.3,1.7L77,150z"/>
</svg>
