<?xml version="1.0" encoding="utf-8"?>
<!-- Generator: Adobe Illustrator 18.0.0, SVG Export Plug-In . SVG Version: 6.00 Build 0)  -->
<!DOCTYPE svg PUBLIC "-//W3C//DTD SVG 1.1//EN" "http://www.w3.org/Graphics/SVG/1.1/DTD/svg11.dtd">
<svg version="1.1" xmlns="http://www.w3.org/2000/svg" xmlns:xlink="http://www.w3.org/1999/xlink" x="0px" y="0px"
	 viewBox="0 0 500 270" enable-background="new 0 0 500 270" xml:space="preserve">
<g id="Start">
	<polygon id="pretip" opacity="0.7" points="9.5,269.2 42,265.7 45.2,265.3 35.8,253.8 34.8,254.4 	"/>
	<polygon id="prec" opacity="0.7" points="93.8,204.9 84.2,194 45.8,235.8 40.3,243.6 40.3,251.2 35.8,253.8 45.2,265.3 72.4,262.2 91.9,261.6
		99.1,261.4 96.6,234.7 96,228.1 93.8,204.9 	"/>
	<polygon id="preo" opacity="0.7" points="129.7,204.9 121.5,209.7 112.3,213.8 98.5,210.3 93.8,204.9 99.1,261.4 108.5,254.3 132.8,255.7
		141.2,254.5 137.9,217.4 	"/>
	<polygon id="pren" opacity="0.7" points="179.8,182.2 169.4,190 165.2,189.1 161.8,188.4 159.9,188 153.1,204.6 138.9,209.8 129.7,204.9
		137.9,217.4 141.2,254.5 159.8,251.9 162.8,251.5 166.2,251 199.2,246.3 179.8,182.2 	"/>
	<polygon id="prev" opacity="0.7" points="199.8,147.5 198,151.7 194.4,158.5 197.9,163.1 196.6,170.7 186.3,184 179.8,182.2 199.2,246.3
		232.1,241.7 230.1,141.2 	"/>
	<polygon id="pree" opacity="0.7" points="230.1,141.2 232.1,241.7 268.9,236.5 294.3,231 287.5,189.7 287,186.5 286.2,181.8 285.8,179.5
		283.1,162.9 282.8,160.9 281.9,155.7 281.7,154.2 277.9,131.2 	"/>
	<polygon id="prer" opacity="0.7" points="342.4,136.6 319.5,122.5 293.1,128 277.9,131.2 294.3,231 365.6,215.6 346,177.3 343.4,148 	"/>
	<polygon id="preg" opacity="0.7" points="356.3,114.8 342.4,136.6 346,177.3 365.6,215.6 424.1,203 411.9,150.1 411.1,146.7 410.3,142.9
		409.4,139.1 408.4,135 407.9,132.5 401.6,105.4 	"/>
	<polygon id="pree2" opacity="0.7" points="467.2,168.9 446.1,175.1 440.4,169.6 449.7,164.6 447.9,155.4 441.5,149 441,143.8 432.7,138.2
		432.4,132.3 442.2,132.7 443,127.7 438.5,124.8 440.3,117.8 435.3,113.8 436.8,98.1 401.6,105.4 424.1,203 480.3,190.8 	"/>
	<polygon id="preisland" opacity="0.7" points="472.1,87.9 471.5,80.8 495,71.6 492.2,83.3 481.6,97 480.1,113.7 481.7,126 475.1,144.1
		467.2,151.1 461.9,134.2 463.5,114.4 469.3,99.2 	"/>
	<polygon id="prer2" opacity="0.7" points="291,128.5 274.4,102.9 271.2,98 252.1,68.5 246.1,92.1 231.8,93.2 223.9,84.3 219.4,86.2 217.2,107
		199.8,147.5 	"/>
	<polygon id="prev2" opacity="0.7" points="316,123.3 322.6,18.8 286.9,4.9 286.6,23.3 281.1,35.5 276.5,44 267.1,52.5 263.3,62.5 253.1,64.5
		252.1,68.5 291,128.5 	"/>
	<path id="prea" opacity="0.7" d="M319.5,122.5L319.5,122.5l22.9,14.1l13.9-21.8l7.6-1.6l6.5-1.4l31.2-6.5l35.1-7.3l0.1-1.4l-3.2-4.4l-11.6-1.5
		l-7.8-7.6l-17.7-3.4l-10.7-3.5l-14.2-5.3l-7.1-4.6l-1.8-8.7l1.8-6.3l4.6-4.8l3.2-13.4l-4.7-6.5L338,15.9l1.7-9.6l-14.7-5
		c0,0,0.1,18.6-2.4,17.4L316,123.3L319.5,122.5z"/>
</g>
<g id="End">
	<path id="posttip" d="M1,269.2l30.8-3.3l12.6-1.5c-6.7-4.8-11.6-10.5-14.2-17.3l0,5L1,269.2z"/>
	<path id="postc" d="M87.4,208.5l-10.5-12l-36.4,39.6l-5.2,7.4l0,2.1c1.1,2.8,2.9,5.7,4.9,8.6c2.7,3.6,5.8,6.3,9.3,8.7l16.3-1.9
		l25.3-0.8l7.3-5.4l-4-17.1l-16.7-4l13.1-11.3L87.4,208.5z"/>
	<path id="posto" d="M124.5,211c-2.8-0.9-5.3-1.3-7.6-1.2l-8.5,3.8l-2.5-0.6c-4.6,2.6-7.4,6.6-9.5,11.3l5.7,24.3
		c1.7,1.5,3.5,2.7,5.2,3.6l17.8,1c7.3-3.2,11.4-7.8,13.3-13.4l-3.9-22.1C131.2,214.6,128,211.8,124.5,211z"/>
	<polygon id="postn" points="177.3,182.1 167.4,189.4 163,188.5 168.9,206.8 158.4,187.7 152,203.2 138.6,208.2 138,207.9
		139.6,217.6 145.4,249.9 160.1,247.9 155.7,227.1 165.8,247 194.6,243 178.5,182.4 	"/>
	<polygon id="postv" points="208.8,147.9 209.1,158.7 210.8,216.4 198.2,168.8 198.1,169.5 188.4,182.1 183.4,180.8 199.5,241.4
		230,237 227.4,144.1 	"/>
	<polygon id="poste" points="232.3,142.5 235,235.4 271.5,230.2 291,226 284.9,187.5 255.3,193.6 255,189 284.1,183 281,163.2
		253.4,168.8 253.1,164.2 280.3,158.7 276.3,133.5 	"/>
	<path id="postr" d="M342.5,148.7c-5.8-18.2-16.8-21.7-28.6-22.9l-5.5,0.5l-27.1,5.5l14.7,92.6l61.2-13.2l-23.4-34.5
		c6.1-5.3,9.1-12.6,9.6-21.6L342.5,148.7z"/>
	<path id="postg" d="M372.1,114c-16.8,5.2-28,15.8-25.3,39.5l6.2,26.4c6.5,19.8,20.2,26.7,38.7,24.5l28.5-6.2l-10.9-49.1l-18.5,4.4
		l3.8,21.5l-8,1.5l-5.5-28.7l26.5-5.9l-7.4-33.6L372.1,114z"/>
	<polygon id="poste2" points="472.6,162.9 452.7,168.7 447.2,163.6 456,158.8 454.3,150.1 448.2,144 447.8,139.1 440,133.8
		439.6,128.2 448.9,128.6 449.7,123.8 445.5,121.1 447.1,114.4 442.4,110.6 443.5,98.8 405.2,106.6 425.1,196.6 485.1,183.6 	"/>
	<polygon id="postisland" points="477.2,86.1 476.7,79.4 499,70.6 496.3,81.7 486.2,94.7 484.8,110.5 486.4,122.2 480.1,139.4
		472.6,146 467.6,130 469.1,111.2 474.6,96.8 	"/>
	<path id="postr2" d="M287.6,126.4L264.1,109c1.8-3.1,3-6.4,3-10.2c-1.2-11.7-7.2-16.2-15.1-18.2l-2,7.8l-13.6,1l-7-8.4l-4.4,1.8
		v23.3v32.9L287.6,126.4z"/>
	<polygon id="postv2" points="313,120.5 327.4,17.3 302.3,7.6 299.9,27.1 293.4,79.7 279.2,45.3 274.8,49.3 271.2,58.7 261.5,60.7
		259.1,70.2 292.1,124.7 	"/>
	<path id="posta" d="M319.2,120.5c4.4,0.9,8.9,2.1,13.4,5.1c3.6,2.1,6.7,5.2,9.5,8.9c2.5-6.9,6.1-13,11.6-17.5l3.6-51.9l3.2-0.4
		l9,45.6l42.2-8.6l-4.5-8.3l-2.6-4.9l-2.4-4.4l-6.1-11.3l-4.4-1.5l-6-2.2l-5.7-2.1l-2.4-6.7l-2.5-6.9l-1.8-5.1l4.4-4.6l0.8-3.4
		L368.6,22l-20.5-7.4l1.6-9.1l-14-4.7c0,0,0,15.9-1.9,16.5L320,114.7L319.2,120.5z"/>
</g>
<g id="Layer_2">
	<path id="state" opacity="0.7" d="M480.3,190.8l-211.5,45.7l-136.1,19.2l-24.3-1.4l-9.4,7l-26.7,0.8L42,265.7l-32.5,3.5l30.8-18l0-7.5l5.5-7.8
		L84.2,194l14.3,16.3l13.8,3.5l9.2-4.1l8.1-4.8l9.2,4.9l14.2-5.2l6.8-16.6l9.5,2l10.4-7.7l6.5,1.8l10.3-13.4l1.3-7.6l-3.5-4.6
		l3.6-6.8l19.2-44.6l2.2-20.8l4.5-1.9l7.9,8.9l14.3-1.1l7-27.5l10.2-2l3.8-10l9.4-8.5l4.6-8.5l5.5-12.2l0.3-18.4l35.7,13.9
		C325.1,20,325,1.4,325,1.4l14.7,5l-1.7,9.6l29.7,10.7l4.7,6.5l-3.2,13.4l-4.6,4.8l-1.8,6.3l1.8,8.7l7.1,4.6l14.2,5.3l10.7,3.5
		l17.7,3.4l7.8,7.6l11.6,1.5l3.2,4.4l-1.6,17.1l5,4l-1.7,7l4.5,2.9l-0.8,5l-9.8-0.3l0.3,5.9l8.3,5.6l0.4,5.1l6.4,6.5l1.8,9.2l-9.3,5
		l5.7,5.4l21.1-6.1L480.3,190.8z M472.1,87.9l-0.5-7.1l23.5-9.3l-2.8,11.7L481.6,97l-1.5,16.7l1.7,12.3l-6.6,18.1l-7.9,7l-5.3-16.9
		l1.6-19.8l5.8-15.2L472.1,87.9z"/>
</g>
</svg>
