<!-- Generator: Adobe Illustrator 18.0.0, SVG Export Plug-In  -->
<svg version="1.1"
	 xmlns="http://www.w3.org/2000/svg" xmlns:xlink="http://www.w3.org/1999/xlink" xmlns:a="http://ns.adobe.com/AdobeSVGViewerExtensions/3.0/"
	 x="0px" y="0px" width="28px" height="28px" viewBox="0 0 28 28" enable-background="new 0 0 28 28" xml:space="preserve">
<defs>
</defs>
<g>
	<path opacity="0.7" fill="#FFFFFF" d="M26,28H2c-1.1,0-2-0.9-2-2v-0.5C0,24.7,0.7,24,1.5,24h25c0.8,0,1.5,0.7,1.5,1.5V26
		C28,27.1,27.1,28,26,28z"/>
	<path opacity="0.7" fill="#FFFFFF" d="M26,16h-1l-2.8,1.7c-1,0.6-2.2,0.7-3.3,0.3L13.1,16H2c-1.1,0-2,0.9-2,2s0.9,2,2,2h24
		c1.1,0,2-0.9,2-2S27.1,16,26,16z"/>
	<path opacity="0.7" fill="#FFFFFF" d="M14,0C6.3,0,0,4.5,0,10c0,1.1,0.9,2,2,2h24c1.1,0,2-0.9,2-2C28,4.5,21.7,0,14,0z M8,6
		C7.8,6.8,7.1,7.3,6.6,7.1c-0.5-0.2-0.7-1-0.4-1.8C6.4,4.5,7.1,4,7.6,4.2C8.1,4.4,8.3,5.2,8,6z M11.6,7.7c-0.1,0.9-0.6,1.5-1.2,1.4
		S9.5,8.3,9.6,7.4s0.6-1.5,1.2-1.4C11.3,6.1,11.7,6.8,11.6,7.7z M14,6.3c-0.5,0-1-0.7-1-1.6s0.4-1.6,1-1.6s1,0.7,1,1.6
		S14.5,6.3,14,6.3z M17.6,9.1c-0.5,0.1-1.1-0.6-1.2-1.4s0.2-1.6,0.8-1.7c0.5-0.1,1.1,0.6,1.2,1.4S18.1,9,17.6,9.1z M21.4,7.1
		C20.9,7.3,20.2,6.8,20,6c-0.3-0.8-0.1-1.6,0.4-1.8c0.5-0.2,1.2,0.3,1.5,1.1C22.1,6.1,21.9,6.9,21.4,7.1z"/>
</g>
</svg>
