<!-- Generator: Adobe Illustrator 18.0.0, SVG Export Plug-In  -->
<svg version="1.1"
	 xmlns="http://www.w3.org/2000/svg" xmlns:xlink="http://www.w3.org/1999/xlink" xmlns:a="http://ns.adobe.com/AdobeSVGViewerExtensions/3.0/"
	 x="0px" y="0px" width="21.6px" height="15.5px" viewBox="0 0 21.6 15.5" enable-background="new 0 0 21.6 15.5"
	 xml:space="preserve">
<defs>
</defs>
<g opacity="0.7">
	<path fill="#FFFFFF" d="M3.7,11.2L0,7.5l3.7-3.7L5,5L2.6,7.5L5,9.9L3.7,11.2z"/>
	<path fill="#FFFFFF" d="M16.6,9.9L19,7.5L16.6,5l1.3-1.3l3.7,3.7l-3.7,3.8L16.6,9.9z"/>
	<path fill="#FFFFFF" d="M12.5,1.3L13.6,0l1.5,1.4l-1,1c0.5,0.6,0.8,1.4,0.8,2.2c0,2.2-1.8,3.6-4,3.6c-0.5,0-1-0.1-1.4-0.2
		C8.6,8.7,8.6,9.5,9.8,9.5c0.8,0,1.4-0.3,2.6-0.3c4.6,0,4.5,6.4-1.5,6.4c-4.5,0-5.5-2.9-3.9-4.9C6.3,9.6,6.5,8,7.7,7.1
		C7.1,6.5,6.8,5.6,6.8,4.6c0-2.2,1.8-3.6,4-3.6C11.4,0.9,12,1.1,12.5,1.3z M8.6,11.6c-0.5,0.9,0.1,1.8,2.3,1.8
		c3.1,0,3.1-2.2,1.4-2.2c-1,0-1.9,0.4-3.2,0.4C8.9,11.6,8.7,11.6,8.6,11.6z M10.8,6.2c1,0,1.6-0.6,1.6-1.6c0-1-0.6-1.6-1.6-1.6
		c-1,0-1.6,0.6-1.6,1.6C9.2,5.6,9.9,6.2,10.8,6.2z"/>
</g>
</svg>
