<?xml version="1.0" encoding="utf-8"?>
<!-- Generator: Adobe Illustrator 18.0.0, SVG Export Plug-In . SVG Version: 6.00 Build 0)  -->
<!DOCTYPE svg PUBLIC "-//W3C//DTD SVG 1.1//EN" "http://www.w3.org/Graphics/SVG/1.1/DTD/svg11.dtd">
<svg version="1.1" id="Layer_1" xmlns="http://www.w3.org/2000/svg" xmlns:xlink="http://www.w3.org/1999/xlink" x="0px" y="0px"
	 viewBox="0 0 300 500" enable-background="new 0 0 300 500" xml:space="preserve">
<polygon id="postx" opacity=".7" points="295.3,431.3 293.4,428.1 291.4,417.1 285.5,406.4 285.7,400.6 282.9,396.6 259.1,408 252.9,350.2
	226.2,310.5 207.9,360.2 216.2,422.3 178.8,439.3 171.2,459.7 171.9,485.7 172.9,489.3 182,490.7 228.9,462.7 234.2,498 262.7,500
	270.6,498.9 269.3,490.7 268.6,490.7 266.4,487 268,483.5 267.1,476.7 266,469.5 264.9,462.7 263.4,452.9 268.8,450.2 277.1,446.1
	282.6,443.3 287.9,440.3 295.6,436.1 297.1,433.1 "/>
<polygon id="prex" opacity=".7" points="289.8,428.6 287.9,425.5 285.9,414.3 279.9,403.5 280.1,397.7 275.5,390.9 265.9,376.4 250.6,353.2
	222.9,311.2 206.3,356.7 195.3,386.7 179.6,429.8 165,469.8 165,483.5 166.1,487.2 187,490.3 210.5,493.6 228,496 256.9,498
	264.9,497 267.9,492.8 269.5,488.8 262.9,488.6 260.6,484.9 262.2,481.4 262.1,468.6 266.7,465.8 272.3,460.5 273.2,450.2
	276.6,443 280.6,438.6 287.4,435 290.1,433.5 291.7,430.4 "/>
<polygon id="posta" opacity=".7" points="222,306.4 180.7,245.4 66.1,335.4 66.3,336.5 69.7,338.5 69.7,343.5 68,347.5 64.3,362.1 63.3,366.1
	68.3,371.8 77,372.8 86.3,376.4 94.3,380.8 100.3,380.8 104.8,385.6 121.8,371 163.5,335.1 145.7,376.3 132,407.9 134.9,412
	136.2,418.7 133.2,420 133.9,422 140.5,423.7 146.2,424 152.2,433.7 160.1,442.3 161.8,447 162.5,448.1 165.3,452.7 167.1,455.6 "/>
<polygon id="prea" opacity=".7" points="222.9,311.2 177.7,244.3 62.3,334.4 62.7,337.1 66,339.1 66,344.2 64.4,348.2 60.7,363 59.8,367
	64.8,372.7 73.5,373.7 82.9,377.5 91,382 97.1,382 103.1,388.3 108.5,398.3 110.8,403 118.9,407.3 129,409 132,413.4 133.3,420.1
	130.3,421.4 131,423.4 137.7,425.1 143.4,425.4 149.4,435.2 157.5,443.9 159.2,448.6 164.4,457.3 165,464.1 165,469.8 "/>
<path id="postm" opacity=".7" d="M155.9,210.8l-26.1-40.2l3.7-14.8l14-53.4l16.7-64.7l-25.4-6.9l-27.8-7l-25.9-8.5l-15.5-4.2L46,5L31.5,0
	l-3.3,9.7L27.9,25L17.3,49.3L11,54.6L10.3,57l-3.7,1.7l-3,8.6L2,73.9l5.7,8.6l3.3,8.6l2.3,7.3l-0.7,13.3L9,118.2l-0.6,5.3l62.6,6.7
	l-56.6,24.1l0.6,0.9c0,0,3.9,8.2,4.7,10s2.7,8.3,2.7,8.3l-0.7,6.7l-0.7,1v4.3l11.6,13l-1,5l-1.3,4.7l-1,3.1l45-4.8L36.2,240l1.4,1.9
	l5.7,1l2,5.7l-2.3,7.3l-4.3,3.3h-2.3l-1.7,8l1,6l6.7,9l3.3,11l3,9.6l2.7,6.3l7,12l3,5.3l0.8,4.8l114.6-89.9L155.9,210.8z"/>
<path id="prem" opacity=".7" d="M157.4,214.4L131,173.8l3.7-15l14.2-53.9l16.9-65.3l-25.8-7l-28-7.1L85.9,17l-15.7-4.3L46.5,6.5l-14.6-5l-3.3,9.8
	l-0.3,15.5L17.5,51.3l-6.4,5.4L10.4,59l-3.7,1.7l-3,8.7L2,76.1l5.7,8.7l3.4,8.7l2.4,7.4l-0.7,13.4l-3.7,6.4l-1.3,12.1
	c0,0-1.9,6.2-2,7.7s3.7,8.1,3.7,8.1l5.7,9.4l4.7,10.1l2.7,8.4l-0.7,6.7l-0.7,1v4.4L33,201.7l-1,5l-1.3,4.7l-1.3,4l0.3,17.1l4.4,7.7
	l4,5.4l5.7,1l2,5.7l-2.4,7.3l-4.4,3.2h-2.4l-1.7,8.2l1,6.1l6.7,9.1l3.4,11.1l3,9.7l2.7,6.4l7.1,12.1l3,5.4l0.6,3.4l115.4-90.1
	L157.4,214.4z"/>
<path id="state" opacity=".7" d="M289.8,428.6l-1.9-3.1l-2-11.2l-6-10.8l0.2-5.8l-4.6-6.8l-9.6-14.5l-15.3-23.2l-27.7-42l0,0l-45-66.6l-0.1-0.4
	l-20.4-29.8L131,173.8l3.7-15l14.2-53.9l16.9-65.3l-25.8-7l-28-7.1L85.9,17l-15.7-4.3L46.5,6.5l-14.6-5l-3.3,9.8l-0.3,15.5
	L17.5,51.3l-6.4,5.4L10.4,59l-3.7,1.7l-3,8.7L2,76.1l5.7,8.7l3.4,8.7l2.4,7.4l-0.7,13.4l-3.7,6.4l-1.3,12.1c0,0-1.9,6.2-2,7.7
	c-0.1,1.5,3.7,8.1,3.7,8.1l5.7,9.4l4.7,10.1l2.7,8.4l-0.7,6.7l-0.7,1v4.4L33,201.7l-1,5l-1.3,4.7l-1.3,4l0.3,17.1l4.4,7.7l4,5.4
	l5.7,1l2,5.7l-2.4,7.3l-4.4,3.2h-2.4l-1.7,8.2l1,6.1l6.7,9.1l3.4,11.1l3,9.7l2.7,6.4l7.1,12.1l3,5.4l0.6,3.4l0,0l-0.1,0.1l0.4,2.7
	l3.3,2v5.1l-1.6,4L60.7,363l-0.9,4l5,5.7l8.7,1l9.4,3.8L91,382h6.1l6,6.3l5.4,10l2.3,4.7l8.1,4.3L129,409l3,4.4l1.3,6.7l-3,1.3
	l0.7,2l6.7,1.7l5.7,0.3l6,9.8l8.1,8.7l1.7,4.7l5.2,8.7l0.6,6.8v5.7v13.7l1.1,3.7l20.9,3.1l23.5,3.3L228,496l28.9,2l8-1l3-4.2l1.6-4
	l-6.6-0.2l-2.3-3.7l1.6-3.5l-0.1-12.8l4.6-2.8l5.6-5.3l0.9-10.3l3.4-7.2l4-4.4l6.8-3.6l2.7-1.5l1.6-3.1L289.8,428.6z"/>
</svg>
