<?xml version="1.0" encoding="utf-8"?>
<!-- Generator: Adobe Illustrator 18.0.0, SVG Export Plug-In . SVG Version: 6.00 Build 0)  -->
<!DOCTYPE svg PUBLIC "-//W3C//DTD SVG 1.1//EN" "http://www.w3.org/Graphics/SVG/1.1/DTD/svg11.dtd">
<svg version="1.1" id="Layer_1" xmlns="http://www.w3.org/2000/svg" xmlns:xlink="http://www.w3.org/1999/xlink" x="0px" y="0px"
	 viewBox="0 0 500 500" enable-background="new 0 0 500 500" xml:space="preserve">
<path id="prem" d="M257.4,214.4L231,173.8l3.7-15l14.2-53.9l16.9-65.3l-25.8-7l-28-7.1L185.9,17l-15.7-4.3l-23.7-6.2l-14.6-5
	l-3.3,9.8l-0.3,15.5l-10.8,24.5l-6.4,5.4l-0.7,2.3l-3.7,1.7l-3,8.7l-1.7,6.7l5.7,8.7l3.4,8.7l2.4,7.4l-0.7,13.4l-3.7,6.4l-1.3,12.1
	c0,0-1.9,6.2-2,7.7c-0.1,1.5,3.7,8.1,3.7,8.1l5.7,9.4l4.7,10.1l2.7,8.4l-0.7,6.7l-0.7,1v4.4l11.8,13.1l-1,5l-1.3,4.7l-1.3,4
	l0.3,17.1l4.4,7.7l4,5.4l5.7,1l2,5.7l-2.4,7.3l-4.4,3.2h-2.4l-1.7,8.2l1,6.1l6.7,9.1l3.4,11.1l3,9.7l2.7,6.4l7.1,12.1l3,5.4l0.6,3.4
	l115.4-90.1L257.4,214.4z"/>
<path id="postm" d="M255.9,210.8l-26.1-40.2l3.7-14.8l14-53.4l16.7-64.7l-25.4-6.9l-27.8-7l-25.9-8.5l-15.5-4.2L146,5l-14.5-5
	l-3.3,9.7L127.9,25l-10.6,24.3l-6.3,5.3l-0.7,2.4l-3.7,1.7l-3,8.6l-1.6,6.6l5.7,8.6l3.3,8.6l2.3,7.3l-0.7,13.3l-3.6,6.5l-0.6,5.3
	l62.6,6.7l-56.6,24.1l0.6,0.9c0,0,3.9,8.2,4.7,10c0.8,1.8,2.7,8.3,2.7,8.3l-0.7,6.7l-0.7,1v4.3l11.6,13l-1,5l-1.3,4.7l-1,3.1l45-4.8
	L136.2,240l1.4,1.9l5.7,1l2,5.7l-2.3,7.3l-4.3,3.3h-2.3l-1.7,8l1,6l6.7,9l3.3,11l3,9.6l2.7,6.3l7,12l3,5.3l0.8,4.8l114.6-89.9
	L255.9,210.8z"/>
<polygon id="prea" points="304,283 277.7,244.3 162.3,334.4 162.7,337.1 166,339.1 166,344.2 164.4,348.2 160.7,363 159.8,367 164.8,372.7
	173.5,373.7 182.9,377.5 191,382 197.1,382 203.1,388.3 208.5,398.3 210.8,403 218.9,407.3 229,409 232,413.4 233.3,420.1
	230.3,421.4 231,423.4 237.7,425.1 243.4,425.4 249.4,435.2 257.5,443.9 259.2,448.6 264.4,457.3 265,464.1 265,469.8 322.9,311.2
	"/>
<polygon id="posta" points="306.2,282.9 280.7,245.4 166.1,335.4 166.3,336.5 169.7,338.5 169.7,343.5 168,347.5 164.3,362.1 163.3,366.1
	168.3,371.8 177,372.8 186.3,376.4 194.3,380.8 200.3,380.8 204.8,385.6 263.5,335.1 232,407.9 234.9,412 236.2,418.7 233.2,420
	233.9,422 240.5,423.7 246.2,424 252.2,433.7 260.1,442.3 261.8,447 267.1,455.6 322,306.4 "/>
<polygon id="prex" points="389.8,428.6 387.9,425.5 385.9,414.3 379.9,403.5 380.1,397.7 375.5,390.9 344.3,342.7 322.9,311.2 265,469.8
	265,483.5 266.1,487.2 287,490.3 328,496 356.9,498 364.9,497 367.9,492.8 369.5,488.8 362.9,488.6 360.6,484.9 362.2,481.4
	362.1,468.6 366.7,465.8 372.3,460.5 373.2,450.2 376.6,443 380.6,438.6 387.4,435 390.1,433.5 391.7,430.4 "/>
<polygon id="postx" points="368.6,490.7 366.4,487 368,483.5 367.9,481.9 363.4,452.9 385.5,441.9 386.2,441.2 392.9,437.6 395.6,436.1
	397.1,433.1 395.3,431.3 393.4,428.1 391.4,417.1 385.5,406.4 385.7,400.6 382.9,396.6 359.1,408 352.9,350.2 350.3,346.1
	326.2,310.5 307.9,360.2 316.2,422.3 278.8,439.3 271.2,459.7 271.2,459.7 271.9,466.4 271.9,485.7 272.9,489.3 282,490.7
	328.9,462.7 334.2,498 362.7,500 370.6,499 370.6,498.9 369.3,490.7 "/>
</svg>
