<!-- Generator: Adobe Illustrator 18.0.0, SVG Export Plug-In  -->
<svg id="ncmap" version="1.1"
	 xmlns="http://www.w3.org/2000/svg" xmlns:xlink="http://www.w3.org/1999/xlink" xmlns:a="http://ns.adobe.com/AdobeSVGViewerExtensions/3.0/"
	 x="0px" y="0px" width="140px" height="60.9px" viewBox="0 0 140 60.9" enable-background="new 0 0 140 60.9" xml:space="preserve"
	>
<defs>
</defs>
<path id="NorthCarolina" opacity="0.7" fill="#FFFFFF" pointer-events="none" d="M128.8,0l1.5,4.2l3.2,5.8l2.2,2.2l0.6,2l-2.2,0.1l0.7,0.6l-0.3,3.8
	l-2.3,1.2l-0.6,1.9l-1.2,2.6l-3.4,1.5l-2.2-0.3l-1.3-0.1l-1.5-1.2l0.3,1.2v1.1h1.8l0.7,0.9l-1.8,5.4h3.8l0.6,1.6l2-2l1.2-0.4
	l-1.8,3.4l-2.8,4.5H125l-1-0.6l-2.5,0.5l-4.7,2.2L111,47l-3.1,4.2l-1.8,5.8l-0.4,2.2l-4.2,0.4l-4.9,1.2l-9-7.4l-11.4-6.9l-2.6-0.7
	l-11.4,1.3l-3.9,0.7L57,45l-2.7-1.9l-14.9,0.4l-6.6,0.7l-8.2,4.1l-5.5,2.3l-1.5,0.3l-5.3,0.9l-6.3,0.7L0,53l0.5-3.7L2.1,48l2.5-0.6
	l0.6-3.4l3.8-2.5l3.5-1.3l3.8-3.2l3.9-1.9l0.6-2.8l3.5-3.5l0.6-0.1c0,0,0,1,0.7,1c0.7,0,1.8,0.3,1.8,0.3l2-3.2l1.9-0.6l2,0.3
	l1.5-3.2l2.5-2.3l0.3-1.9v-3.6l4.2,0.7l6.5-1.2l14.3-1.8L78,11l18-3.6l17.8-3.8l10.3-2.5L128.8,0z M132.3,29.8l2.3-2.3l2.8-2.3
	l1.4-0.6l0.1-1.8l-0.6-5.5l-1.3-2.1l-0.6-1.7l0.7-0.2l2.5,5l0.4,4l-0.1,3.1l-3.1,1.4l-2.6,2.2l-1,1.1L132.3,29.8z"/>
</svg>
