<!-- Generator: Adobe Illustrator 18.0.0, SVG Export Plug-In  -->
<svg version="1.1"
	 xmlns="http://www.w3.org/2000/svg" xmlns:xlink="http://www.w3.org/1999/xlink" xmlns:a="http://ns.adobe.com/AdobeSVGViewerExtensions/3.0/"
	 x="0px" y="0px" width="133px" height="73.4px" viewBox="0 0 133 73.4" enable-background="new 0 0 133 73.4" xml:space="preserve"
	>
<defs>
</defs>
<path id="Virginia_1_" opacity="0.7" fill="#FFFFFF" d="M126.7,23.7l-0.1-1.9l6.4-2.5l-0.8,3.2l-2.9,3.8l-0.4,4.6l0.5,3.4l-1.8,5
	l-2.2,1.9l-1.5-4.6l0.4-5.4l1.6-4.2L126.7,23.7z M129,51.9L71,64.4l-37.3,5.3l-6.7-0.4l-2.6,1.9l-7.3,0.2l-8.3,1L0,73.4l8.4-4.9
	l0-2.1l1.5-2.1l10.5-11.5l3.9,4.5l3.8,1l2.5-1.1l2.2-1.3l2.5,1.3l3.9-1.4l1.9-4.5l2.6,0.5l2.8-2.1l1.8,0.5l2.8-3.7l0.3-2.1l-1-1.3
	l1-1.9l5.3-12.2l0.6-5.7l1.2-0.5l2.2,2.4l3.9-0.3l1.9-7.5l2.8-0.6l1-2.7l2.6-2.3l1.3-2.3L75.9,6L76,1l9.8,3.8
	C86.4,5.1,86.4,0,86.4,0l4,1.4L90,4l8.1,2.9l1.3,1.8l-0.9,3.7l-1.3,1.3l-0.5,1.7l0.5,2.4l2,1.3l3.9,1.4l2.9,1l4.8,0.9l2.1,2.1
	l3.2,0.4l0.9,1.2l-0.4,4.7l1.4,1.1l-0.5,1.9l1.2,0.8l-0.2,1.4l-2.7-0.1l0.1,1.6l2.3,1.5l0.1,1.4l1.8,1.8l0.5,2.5l-2.5,1.4l1.6,1.5
	l5.8-1.7L129,51.9z"/>
</svg>
