<?xml version="1.0" encoding="utf-8"?>
<!-- Generator: Adobe Illustrator 16.1.0, SVG Export Plug-In . SVG Version: 6.00 Build 0)  -->
<!DOCTYPE svg PUBLIC "-//W3C//DTD SVG 1.1//EN" "http://www.w3.org/Graphics/SVG/1.1/DTD/svg11.dtd">
<svg version="1.1" id="Layer_1" xmlns="http://www.w3.org/2000/svg" xmlns:xlink="http://www.w3.org/1999/xlink" x="0px" y="0px"
	 width="1280px" height="154px" viewBox="0 0 1280 154" enable-background="new 0 0 1280 154" xml:space="preserve">
<path fill="#FFFFFF" d="M1274.035,66.302c-3.202,0-6.187,0.905-8.736,2.449c-0.915-3.366-2.842-6.315-5.455-8.49
	c3.539-2.012,5.929-5.793,5.929-10.133c0-6.447-5.253-11.675-11.736-11.675c-2.877,0-5.509,1.034-7.551,2.745
	c-2.726-5.175-8.167-8.712-14.449-8.712c-2.846,0-5.521,0.729-7.851,2.005c-5.307-2.37-11.186-3.699-17.379-3.699
	c-4.66,0-9.143,0.757-13.338,2.139c-1.78-2.55-4.716-4.235-8.055-4.318c-2.27-7.979-9.627-13.836-18.379-13.836
	c-4.979,0-9.499,1.912-12.901,5.016c-1.651-1.333-3.755-2.134-6.048-2.134c-3.034,0-5.737,1.405-7.499,3.591
	c-4.011-4.449-9.833-7.25-16.313-7.25c-6.537,0-12.403,2.854-16.418,7.373c-2.998-5.569-8.899-9.362-15.697-9.362
	c-8.311,0-15.271,5.678-17.229,13.341c-2.223-8.445-9.923-14.686-19.111-14.686c-6.171,0-11.68,2.815-15.307,7.223
	c-2.729-6.716-9.334-11.459-17.063-11.459c-8.195,0-15.136,5.335-17.519,12.702c-1.049-0.914-2.419-1.473-3.924-1.473
	c-2.66,0-4.913,1.735-5.682,4.129c-0.424-0.095-0.864-0.15-1.318-0.15c-3.293,0-5.964,2.657-5.964,5.933
	c0,0.086,0.009,0.171,0.013,0.256c-4.576,0.964-8.013,5.003-8.013,9.843c0,0.467,0.043,0.924,0.104,1.375
	c-2.813-3.342-7.037-5.471-11.764-5.471c-5.804,0-10.853,3.208-13.46,7.938c-2.073-1.242-4.495-1.97-7.093-1.97
	c-7.454,0-13.513,5.891-13.766,13.246c-0.752-0.199-1.537-0.315-2.353-0.315c-2.56,0-4.87,1.049-6.529,2.733
	c-2.065-2.856-5.428-4.724-9.233-4.724c-1.333,0-2.607,0.24-3.797,0.66c-2.619-6.781-9.209-11.601-16.946-11.601
	c-5.654,0-10.704,2.572-14.036,6.603c-1.929-1.039-4.138-1.63-6.485-1.63c-1.12,0-2.204,0.15-3.247,0.403
	c-1.987-0.891-4.187-1.397-6.509-1.397c-2.475,0-4.809,0.579-6.896,1.583c-2.646-5.073-7.963-8.545-14.104-8.545
	c-7.065,0-13.049,4.593-15.111,10.94c-1.996-1.253-4.354-1.988-6.889-1.988c-5.479,0-10.152,3.396-12.041,8.181
	c-0.756-0.142-1.534-0.225-2.333-0.225c-4.947,0-9.216,2.854-11.266,6.989c-1.648-1.261-3.705-2.017-5.944-2.017
	c-0.854,0-1.682,0.121-2.473,0.326c-0.661-0.668-1.445-1.211-2.312-1.605c0.359-0.895,0.563-1.866,0.563-2.889
	c0-4.289-3.497-7.768-7.811-7.768c-2.45,0-4.637,1.126-6.067,2.885c-1.506-5.408-6.477-9.383-12.392-9.383
	c-2.399,0-4.639,0.666-6.562,1.805c-2.048-2.016-4.862-3.264-7.972-3.264c-2.139,0-4.13,0.6-5.836,1.624
	c-1.346-4.056-4.719-7.182-8.928-8.212c-1.216-4.416-4.354-8.032-8.474-9.91c-0.392-9.078-7.894-16.324-17.117-16.324
	c-3.957,0-7.59,1.347-10.492,3.587c-1.661-4.971-6.364-8.56-11.921-8.56c-4.939,0-9.203,2.843-11.256,6.969
	c-0.044-0.001-0.085-0.007-0.129-0.007c-3.307,0-6.146,1.956-7.438,4.763c-0.818-0.114-1.648-0.195-2.5-0.195
	c-8.944,0-16.322,6.607-17.519,15.178c-2.995-2.748-6.984-4.439-11.38-4.439c-7.032,0-13.048,4.3-15.556,10.396
	c-1.527-3.333-4.899-5.655-8.823-5.655c-1.964,0-3.79,0.585-5.317,1.584c-2.867-2.373-6.551-3.803-10.571-3.803
	c-7.66,0-14.087,5.188-15.968,12.219c-3.564-8.232-11.794-13.997-21.378-13.997c-2.458,0-4.825,0.382-7.048,1.084
	c-2.241-5.52-7.67-9.42-14.021-9.42c-5.497,0-10.295,2.927-12.943,7.29c-4.423-6.311-11.769-10.444-20.089-10.444
	c-9.915,0-18.447,5.868-22.294,14.3c-1.383-0.51-2.872-0.802-4.434-0.802c-4.418,0-8.312,2.236-10.603,5.631
	c-1.856-3.597-5.614-6.062-9.959-6.062c-1.339,0-2.618,0.246-3.809,0.675c-2.439-2.108-5.617-3.395-9.104-3.395
	c-3.235,0-6.205,1.109-8.566,2.955c-0.926-5.815-5.975-10.268-12.08-10.268c-5.754,0-10.565,3.952-11.881,9.271
	c-2.205-1.227-4.742-1.932-7.448-1.932c-8.451,0-15.301,6.812-15.301,15.217c0,0.249,0.025,0.491,0.037,0.736
	c-0.178-0.021-0.354-0.055-0.538-0.055c-1.796,0-3.335,1.055-4.056,2.568c-1.062-0.21-2.158-0.324-3.282-0.324
	c-8.733,0-15.89,6.675-16.618,15.174c-0.615-0.315-1.304-0.51-2.044-0.51c-1.717,0-3.191,0.968-3.95,2.375
	c-0.9-0.087-1.814-0.136-2.738-0.136c-2,0-3.95,0.216-5.83,0.613c0.256-0.936,0.405-1.916,0.405-2.934
	c0-6.15-5.013-11.136-11.197-11.136c-0.161,0-0.317,0.018-0.476,0.024c-1.08-9.297-9.012-16.519-18.648-16.519
	c-3.831,0-7.391,1.147-10.361,3.106c-3.145-2.641-7.202-4.239-11.64-4.239c-4.786,0-9.124,1.864-12.356,4.886
	c-1.777-0.582-3.671-0.907-5.644-0.907c-0.943,0-1.862,0.094-2.768,0.232c-2.25-1.852-5.209-2.965-8.359-2.965
	c-7.183,0-13.079,5.793-13.079,12.938c0,0.008,0,0.016,0,0.023c-1-0.353-2.59-0.558-4.002-0.558
	c-7.023,0-12.908,4.665-14.789,11.047c-0.819-1.1-2.104-1.82-3.586-1.82c-1.951,0-3.588,1.244-4.211,2.975
	c-1.968-1.098-4.229-1.729-6.645-1.729c-5.559,0-10.33,3.314-12.45,8.062c-4.579-4.521-10.883-7.318-17.846-7.318
	c-7.957,0-15.054,3.652-19.696,9.358c-2.48-1.685-5.476-2.672-8.705-2.672c-6.917,0-12.771,4.521-14.744,10.754
	c-2.164-1.147-4.633-1.802-7.256-1.802c-3.882,0-7.421,1.435-10.136,3.785c-2.511-1.754-5.563-2.791-8.864-2.791
	c-5.996,0-11.184,3.401-13.746,8.365c-4.039-1.834-8.523-2.865-13.254-2.865c-6.143,0-11.877,1.729-16.746,4.72
	C71.369,70.702,62.755,65.65,52.95,65.65c-4.752,0-9.225,1.188-13.139,3.277c-4.493-2.1-9.508-3.277-14.802-3.277
	c-7.015,0-13.541,2.066-19.01,5.613C4.32,69.576,2.273,68.261,0,67.402V154h1280V67.402
	C1278.145,66.703,1276.139,66.302,1274.035,66.302z"/>
</svg>
